<?xml version="1.0" encoding="utf-8"?>
<!-- Generator: Adobe Illustrator 27.7.0, SVG Export Plug-In . SVG Version: 6.00 Build 0)  -->
<svg version="1.1" id="Layer_1" xmlns="http://www.w3.org/2000/svg" xmlns:xlink="http://www.w3.org/1999/xlink" x="0px" y="0px"
	 viewBox="0 0 595.28 595.89" style="enable-background:new 0 0 595.28 595.89;" xml:space="preserve">
<style type="text/css">
	.st0{fill:#D6EFF4;}
	.st1{fill:#FAB485;}
	.st2{fill:#CED3D5;}
	.st3{fill:#FFFEFE;}
	.st4{fill:#F7F9F8;}
	.st5{fill:#42618C;}
	.st6{fill:#304A6B;}
	.st7{fill:#C4D9D8;}
	.st8{fill:#FAAA70;}
	.st9{fill:#FAF3F8;}
	.st10{fill:#F5F4F6;}
	.st11{fill:#F3F6F4;}
	.st12{fill:#F5F6F1;}
	.st13{fill:#82859D;}
	.st14{fill:#F9F7F6;}
	.st15{fill:#555354;}
	.st16{fill:#3F4858;}
	.st17{fill:#7A6D63;}
	.st18{fill:#56574F;}
	.st19{fill:#D8DDDF;}
	.st20{fill:#D4DDDF;}
	.st21{fill:#CACACA;}
	.st22{fill:#C1CCCE;}
	.st23{fill:#A1AFBB;}
	.st24{fill:#BAC7CB;}
	.st25{fill:#CDD7E2;}
	.st26{fill:#898F96;}
	.st27{fill:#A5B2B3;}
</style>
<rect class="st0" width="595.28" height="595.28"/>
<path class="st1" d="M498.44,332.94c-2.26-21.27-4.7-39.98-6.95-55.64c-5.25-36.57-7.87-54.85-9.89-60.49
	c-0.25-0.71-0.9-2.39-0.85-4.66c0.08-4.12,2.34-6.12,5.69-12.17c2.82-5.1,4.82-8.71,3.41-10.1c-1.25-1.24-4.89-0.41-7.11,1.04
	c-2.37,1.54-2.34,3.89-3.13,3.88c-1.38,0-2.23-6.18-3.21-12.47c-1.64-10.5-2.48-15.75-3.22-15.81c-1.62-0.11-5.78,8.85-2.26,16.53
	c1.23,2.68,3.11,4.59,4.67,5.85c-8.07,4.44-16.14,8.88-24.21,13.32c2.83,4.03,5.67,8.06,8.5,12.09c-1.73,9.31-3.2,19.44-4.18,30.33
	c-1.04,11.48-1.39,22.22-1.31,32.1c1.46,1.27,2.92,2.54,4.38,3.81c0,0,2.72,2.88,9.15,12.34c6.16,9.06,6.65,19.08,6.69,21.96
	c0.12,8.59-3.26,14.96-0.18,16.75c0.38,0.22,0.71,0.29,4.01,0.12c7.17-0.37,9.2-0.86,12.18-0.68
	C492.46,331.15,495.16,331.54,498.44,332.94z"/>
<path class="st2" d="M54.96,211.23c-0.6,44.8-1.2,89.6-1.8,134.39c19.5,11.75,39.01,23.49,58.51,35.24
	c3.43-0.68,6.86-1.36,10.29-2.04c-3.09-1.58-8.35-4.88-9.99-10.45c-0.16-0.54-0.38-1.42-0.37-5.87c0.02-8.8,0.04-13.2,1.86-17.07
	c1.88-4.01,5.83-8.84,8.26-8.23c3.55,0.9,1.99,13.02,5.64,13.63c0.76,0.13,1.43-0.3,1.76-0.52c10.44-6.69,0-54.57,0-54.57
	c-4.86-22.29-7.29-33.43-12.08-41.54C100.9,226.87,69.84,215.52,54.96,211.23z"/>
<path class="st3" d="M54.96,211.23c113.69-60.8,227.39-121.59,341.08-182.39c8.7,2.02,40.09,10.31,60.75,38.34
	c12.47,16.91,15.63,33.68,16.57,42.74C358.28,169.9,243.19,229.89,128.11,289.88c-0.9-3.75-2.24-9.13-4.06-15.58
	c-4.03-14.3-5.96-18.15-7.01-20.09c-3.63-6.71-7.82-11.03-10.57-13.87C89.98,223.33,60.15,212.98,54.96,211.23z"/>
<path class="st4" d="M473.36,109.91c-0.06,23.62-0.12,47.24-0.18,70.86c-109.1,58.27-218.2,116.54-327.3,174.82
	c-4.6,2.61-9.2,5.22-13.8,7.82c-0.19,0.21-0.36,0.31-0.52,0.29c-1.34-0.13-1.4-8.31-1.44-11.82c-0.1-8.92-1-17.83-0.96-26.75
	c0.04-8.16-0.12-20.03-1.06-35.25C243.19,229.89,358.28,169.9,473.36,109.91z"/>
<path class="st5" d="M535.29,545.25L535.29,545.25c-4.52-20.67-5.46-25.11-5.46-25.11c-16.32-69.11-13.84-74.14-24.34-89.97
	c-16.57-24.98-35.67-31.95-40.56-33.57c-4.46-1.48-8.34-2.26-11.06-2.69c-4.3,3.19-8.97,6.35-14.03,9.41
	c-25.32,15.33-50.91,22.46-71.28,25.89c-21.3,0.11-42.59,0.22-63.89,0.34c-15.86,12.72-27.21,22.51-30.28,25.55
	c-0.46,0.46-2.66,2.68-4.06,6.05c-0.79,1.91-0.78,2.88-0.74,3.36c0.2,2.32,1.88,3.48,2.95,5.04c2.5,3.64,0.73,8,0.74,9.41
	c0.02,4.15,15.52,9.82,76.45,17.15c3.97,1.36,10.89,3.19,19.57,2.69c11.62-0.66,19.93-5.11,23.64-7.4
	c-0.54,9.86-2.06,21.89-5.71,35.21c-2.46,8.99-5.44,16.9-8.43,23.64C430.95,548.59,483.12,546.92,535.29,545.25z"/>
<path class="st6" d="M351.37,496.65c9.14,17.87,18.27,35.74,27.41,53.61c0.6-0.21,1.2-0.42,1.81-0.62
	c3.34-8.36,6.7-18.66,9.09-30.66c2.04-10.24,2.94-19.56,3.25-27.56c-4.37,2.05-10.49,4.37-18.07,5.58
	C364.91,498.57,356.58,497.63,351.37,496.65z"/>
<path class="st7" d="M473.18,166.52C357.9,227.95,242.63,289.39,127.35,350.83l2.38,3.7c114.51-60.92,229.02-121.85,343.53-182.77
	C473.24,170.01,473.21,168.26,473.18,166.52z"/>
<path class="st8" d="M260.36,457.45c0.91-3.31,1.23-5.35,3.18-7.4c0.09-0.09,0.11-0.11,0.23-0.23c3.39-3.44,5.26-7.84,5.43-8.22
	c1.05-2.4,4.4-6.66,14.47-14.8c-23.69-13.33-43.89-22.65-58.69-28.91c-7.25-3.07-27.35-11.56-41.96-16
	c-1.73-0.53-8.69-2.6-17.86-5.94c-4.5-1.64-8.17-3.07-10.58-4.04c-2.4-3.69-4.91-7.43-7.53-11.22c-1.42-2.06-2.85-4.08-4.28-6.08
	c0.11-3.43,0.23-6.85,0.34-10.28c-0.66-0.24-2.85-0.96-4.45,0c-1.26,0.76-1.5,2.17-1.88,4.67c-0.23,1.48-0.4,3.56-0.17,6.08
	c-1.05,0.19-2.66,0.32-4.28-0.31c-1.09-0.43-3.28-1.63-5.17-7.3c-2.42-7.26-0.92-11.63-3.05-12.48c-1.78-0.72-4.53,1.66-5.3,2.34
	c-8.43,7.29-8.12,22.59-7.7,28.82c0.72,2.2,2.63,6.97,7.59,11.19c5.62,4.79,11.85,6.04,14.32,6.42c2.22,2.23,4.45,4.47,6.67,6.7
	c37.25,23.32,74.49,46.63,111.74,69.95c2.39,1.34,5.43,2.63,7.16,1.57C259.21,461.58,259.6,460.2,260.36,457.45z"/>
<path class="st9" d="M257.46,482.37c5.57,0.22,11.13,0.44,16.7,0.66c1.46-3.84,1.44-6.99,0.72-9.57
	c-0.79-2.81,7.48-25.3,16.68-32.42c3.23-2.5,8.29-6.45,14.56-11.49c-4.17-1.36-9.63-2.63-16.1-2.86c-2.27-0.08-4.4-0.02-6.36,0.12
	c-4.18,2.92-8.35,5.85-12.53,8.77c-4.46,6.6-8.93,13.19-13.39,19.79c-0.84,4.13-1.5,9.18-1.44,14.94
	C256.36,474.84,256.83,478.9,257.46,482.37z"/>
<path class="st10" d="M429,473.76c3.1,8.47,6.2,16.94,9.3,25.41c11.13-2.68,24.34-6.7,38.62-12.83
	c13.91-5.98,25.47-12.52,34.68-18.48c-1.97-8.47-3.95-16.94-5.92-25.41c-6.85,4.15-14.46,8.32-22.83,12.32
	C463.3,464.1,444.8,469.97,429,473.76z"/>
<path class="st11" d="M448.45,505.12c2.9,6.67,5.8,13.34,8.7,20.01c10.03-3.34,21.05-7.57,32.65-12.99
	c8.82-4.12,16.8-8.37,23.95-12.55c-2.19-6.92-4.37-13.84-6.56-20.76c-6.42,4.78-14.82,10.18-25.27,15.09
	C469.27,499.85,457.6,503.18,448.45,505.12z"/>
<path class="st12" d="M367.34,430.79c-0.58-1.33-1.17-2.66-1.75-3.98c4.96-6.59,9.92-13.17,14.88-19.76c4.83-0.64,10-1.61,15.4-3.03
	c21.64-5.68,37.45-16.07,47.61-24.38c0.12,2.02,0.23,4.04,0.35,6.05c2.68,2.07,5.37,4.14,8.05,6.21c0.17,1.02,0.35,2.04,0.52,3.06
	c-8.32,5.87-18.48,12.13-30.56,17.93C401.33,422.74,382.22,427.93,367.34,430.79z"/>
<path class="st13" d="M452.4,394.98c-1.05-1.7-2.1-3.4-3.16-5.1c19.09,0.25,32.98,1.23,34.88,1.71c2.51,0.64,4.59,1.64,4.59,1.64
	c0.09,0.04,0.17,0.08,0.24,0.12c13.99,6.94,14.11,25.07,16.08,24.86c1.66-0.18,1.87-13.12,0.36-31.55c-1.07-13-2.24-19.53-1.79-19.6
	c0.7-0.1,5.35,15.42,6.97,33.62c1.13,12.7,0.8,27,0.71,30.91c-0.05,2.38-0.12,4.36-0.18,5.74c2.08,5.34,5.03,13.3,8.04,23.1
	c7.61,24.82,10.33,44.27,14.04,71.66c2.79,20.65-6.99-17.44-8.73-28.06c-1.7-10.41-3.48-19.53-6.56-30.21
	c-1.66-5.77-3.37-10.7-6.79-20.55c-4.3-12.41-6.48-18.72-8.93-23.26c-2.96-5.49-6.74-12.32-14.41-19.3
	c-4-3.64-10.83-9.83-22.02-13.32C460.4,395.71,455.69,395.16,452.4,394.98z"/>
<path class="st6" d="M449.24,389.88c-1.81-1.39-3.61-2.79-5.42-4.18c-0.15-1.9-0.31-3.79-0.46-5.69
	c7.55-4.84,11.46-9.82,13.64-13.58c1.56-2.69,2.37-5,5.75-11.4c2.02-3.82,3.79-6.9,5-8.96c2.77-1.3,5.54-2.61,8.3-3.91
	c0,0,4.5-1.98,8.38-1.9c0.41,0.01,0.96,0.07,1.48,0.36c0.81,0.44,1.14,1.18,1.27,1.46c0.84,1.74,3.24,4.08,5.69,4.77
	c0.18,0.05,1.34,0.26,3.67,0.33c1.57,0.04,2.12-0.09,2.96,0.22c4,1.47,3.79,9.02,4.42,17.38c0.49,6.46,1.03,7.33,1.71,10.64
	c0,0,0.76,3.26,1.3,9.31c0.44,4.9,0.42,20.35-1.05,41.23c-0.97-5.26-3.99-16.61-14.56-24.88c-7.11-5.57-15.83-8.74-22.24-9.63
	c-2.03-0.28-7.3-0.82-12.89-1.19C453.31,390.06,450.9,389.95,449.24,389.88z"/>
<path class="st14" d="M484.45,340.26c1.76,0.11,2.97,3.07,3.72,5.54c2.36,0.88,5.88,1.94,10.3,2.3c2.98,0.24,4.6,0.36,5.7-0.48
	c2.33-1.77,1.4-7.01-1.86-13.04c-3.04-1.48-7.77-3.31-13.66-3.74c-5.28-0.39-9.77,0.47-11.67,0.85c-1.1,0.22-2.02,0.44-2.65,0.6
	c0.19,1.25,0.26,3.1-0.53,5.07c-0.39,0.96-0.6,1.02-3.32,4.83c-0.52,0.73-1.86,2.64-2.92,5.31c-0.48,1.22-0.64,1.94-0.27,2.29
	c0.51,0.47,1.79,0.05,2.96-0.4c3.97-1.54,6.82-2.64,10.17-5.76C482.83,341.4,483.29,340.18,484.45,340.26z"/>
<path class="st15" d="M363.78,289.47c-4.27-2.43-20.44-11.38-24.5-7.57c-2.49,2.33,0.59,8.51,3.7,14.73
	c2.51,5.02,7.81,15.31,20.34,23.57c3.99,2.63,11.16,7.51,12.48,6.31c1.22-1.11-3.88-6.22-7.53-13.66
	C363.99,304.1,363.44,295.67,363.78,289.47z"/>
<path class="st16" d="M363.74,290.65c4.12-6.32,10.67-14.33,20.71-21.23c5.45-3.74,12.68-8.6,23.45-10.23
	c3.55-0.54,6.57-0.59,8.67-0.53c-2.53,0.8-6.01,2.11-9.8,4.23c-14.35,8.03-20.1,20.37-21.65,23.82
	c-6.64,14.83-3.63,27.89-2.58,32.11c1.54,6.23,4,11.08,5.9,14.27c-4.21-2.2-8.42-4.4-12.63-6.6c-3.93-5.12-9.15-13.49-11.21-24.67
	C363.84,297.71,363.65,293.94,363.74,290.65z"/>
<path class="st5" d="M476.25,323.58c0.33,2.88,0.46,8.17-2.45,13.77c-1.01,1.95-2.2,3.55-3.32,4.83c-1.69-0.84-7.97-3.74-15.32-1.9
	c-2.03,0.51-7.14,1.79-9.87,6.24c-1.52,2.47-1.67,4.9-1.64,6.24c6.5,1.56,12.99,3.13,19.49,4.69c-0.13,0.72-0.43,1.72-1.25,2.58
	c-2.11,2.21-6.73,2.55-18.98-0.74c-6.54-1.76-17.73-4.84-30.87-11.89c-6.67-3.58-6.53-4.25-13.33-7.65
	c-3.67-1.83-6.43-2.99-9.33-5.71c-2.77-2.61-4.3-5.38-5.16-7.3c3.19-0.44,6.37-0.87,9.56-1.31c5.84,1.3,9.88,0.61,12.53-0.3
	c3.25-1.12,4.22-2.52,7.93-3.16c2.46-0.42,3.76-0.1,8.86,0.33c0,0,2.29,0.2,9.7,0.59c8.5,0.45,13.06,0.69,18.54-0.59
	c7.02-1.65,11.7-4.92,13.16-5.99c5.25-3.86,8.06-8.31,9.46-11.01c0.24-1.03,0.44-1.36,0.6-1.36c0.98,0.02,1.6,12.3,1.6,12.3
	L476.25,323.58z"/>
<path class="st6" d="M385.34,329.24c-3.04-0.33-4.39-11.23-4.56-19.88c-0.22-11.48-0.34-17.22,2.38-23.58
	c7.18-16.84,25.32-24.28,30.44-26.14c1.22-0.45,2.26-0.77,2.96-0.99c6.35,0.82,15.16,2.76,24.45,7.49
	c3.13,1.6,14.75,7.82,24.26,20.58c5.51,7.39,8.37,14.37,9.91,19.17c-2,2.86-5.75,7.42-11.97,11.31c-2.48,1.55-7.12,4.39-13.74,5.67
	c-9.25,1.78-20.95,0.22-27.91-0.7c-1-0.13-3.15-0.44-5.8,0.11c-2.62,0.54-3.62,1.47-6,2.46c-3.79,1.58-7.24,1.72-9.6,1.81
	c-5.79,0.23-7.52-1.33-10.8,0.09C386.73,327.79,386.52,329.37,385.34,329.24z"/>
<path class="st15" d="M443.65,352.76c-0.08-1.19-0.08-3.88,1.66-6.64c2.9-4.59,8.25-5.62,9.12-5.78c1.59-0.41,3.83-0.8,6.51-0.69
	c4.44,0.17,7.78,1.61,9.55,2.53c-2.58,4.28-5.15,8.56-7.73,12.85c-1.5,4.76-4.63,12.04-11.43,18.84c-4.21,4.21-8.22,6.63-11.08,8.33
	c-5.58,3.32-11.47,6.73-19.29,6.73c-1.61,0-4.19-0.02-7.26-1.07c-7.14-2.43-10.2-8.08-10.65-8.95c-0.65-1.25-1.72-3.36-1.76-6.18
	c-0.03-2.32,0.66-3.31,3.28-9.59c1.89-4.53,2.59-6.58,3.16-8.53c1.68-5.77,1.14-7.29,0.7-8.1c-0.83-1.56-2.35-2.35-5.39-3.94
	c-3.64-1.91-5.82-3.05-8.66-3.09c-4.45-0.06-7.72,2.62-9.72,4.26c-6.04,4.96-7.45,11.62-7.84,14.39c0.44,2.04-0.6,3.91-2.22,4.48
	c-1.35,0.47-2.85-0.03-3.75-0.75c-1.5-1.19-1.59-3.16-1.52-4.69c0.19-4.52,1.77-7.45,3.86-12.68c3.01-7.53,3.47-10.82,3.63-12.9
	c0.15-1.93,0.08-3.53,0-4.58c7.71,3.93,13.88,7.31,18.08,9.66c9.5,5.33,12.88,7.63,19.66,10.96c7.51,3.69,13.97,6.08,18.19,7.51
	c6.44,1.87,12.89,3.75,19.33,5.62c2.3,1.28,5.09,1.18,6.93-0.18c1.73-1.28,1.94-3.2,1.97-3.62
	C455.2,355.56,449.43,354.16,443.65,352.76z"/>
<path class="st8" d="M360.33,318.08c0.11,5.29-1.55,8.23-3.21,9.97c-1.52,1.59-4,3.18-6.45,6.71c-0.6,0.86-1.24,1.89-1.27,3.25
	c-0.04,1.79,1,2.91,1.73,4.2c1.09,1.92,1.09,3.86,1.04,7.66c-0.07,5.74-1.07,8.85-1.73,13.95c-0.96,7.5-1.44,11.25,0.23,15.11
	c2.72,6.28,8.92,9.45,10.95,10.49c0.38,0.2,5.5,2.76,11.64,3.15c3.06,0.19,6.25-0.16,6.68-0.21c1.36-0.16,2.5-0.36,3.34-0.52
	c-0.08,4.95-0.15,9.91-0.23,14.86c1.9-0.35,3.85-0.69,5.85-1c2.01-0.32,3.98-0.6,5.9-0.85c0,0,15.2-2.91,35.39-15.65
	c1.05-0.67,2.12-1.36,2.12-1.36c4.02-2.72,8.48-5.78,8.4-5.89c-0.06-0.07-2.06,1.32-4.63,2.65c-3.54,1.83-9.33,4.83-16.6,4.33
	c-1.66-0.12-5.6-0.43-9.65-2.86c-1.04-0.62-4.32-2.72-6.54-6.68c-0.83-1.48-2.07-3.69-2-6.63c0.08-3.48,1.57-4.16,5.28-12.68
	c0.69-1.58,1.88-4.43,2.38-8.21c0.3-2.3,0.2-3.83-0.52-5.34c-0.17-0.36-0.87-1.74-2.96-3.34c-3.32-2.54-9.3-5-14.75-3.17
	c-1.2,0.4-2.04,0.9-3.16,1.57c-0.83,0.5-3.67,2.26-6.25,5.52c-1.55,1.96-2.36,3.64-2.95,4.9c-1.08,2.28-1.61,3.42-1.61,5.04
	c0,1.43,0.41,1.81,0.07,2.85c-0.39,1.21-1.65,2.81-3.45,2.9c-1.74,0.08-3.22-1.58-3.8-2.9c-0.57-1.3-0.36-2.5-0.21-3.3
	c0.96-5.05,2.36-8.53,2.36-8.53c1.49-3.25,2.52-6.1,3.23-8.33c1.65-5.18,1.86-7.85,1.91-8.67c0.1-1.66,0.04-3.06-0.05-4.04
	C371.32,324.02,365.83,321.05,360.33,318.08z"/>
<path class="st17" d="M158.83,385.49c1.95-1.52,4.37-3.85,6.12-7.18c0.45-0.85,0.8-1.67,1.09-2.46c-1.15-0.66-2.68-1.4-4.58-1.99
	c-1.57-0.49-3.01-0.75-4.19-0.89c-2.14,2.95-4.29,5.91-6.43,8.86C153.5,383.06,156.16,384.27,158.83,385.49z"/>
<path class="st18" d="M147.94,382.01l-7.7,9.68c-1.05,1.31-0.72,3.15,0.72,4.1l8.27,5.45c1.44,0.95,3.46,0.66,4.51-0.66l7.7-9.68
	c1.05-1.31,0.72-3.15-0.72-4.1l-8.27-5.45C151,380.4,148.98,380.7,147.94,382.01z"/>
<path class="st19" d="M190.55,157.43l-88.31,48.19c-1.88,1.02-2.49,3.24-1.36,4.95l0,0c1.12,1.71,3.56,2.26,5.43,1.24l88.31-48.19
	c1.88-1.02,2.49-3.24,1.36-4.95l0,0C194.86,156.97,192.43,156.41,190.55,157.43z"/>
<path class="st19" d="M200.09,165.32l-88.31,48.19c-1.88,1.02-2.49,3.24-1.36,4.95h0c1.12,1.71,3.56,2.26,5.43,1.24l88.31-48.19
	c1.88-1.02,2.49-3.24,1.36-4.95l0,0C204.4,164.85,201.97,164.3,200.09,165.32z"/>
<path class="st19" d="M209.58,172.52l-88.31,48.19c-1.88,1.02-2.49,3.24-1.36,4.95l0,0c1.12,1.71,3.56,2.26,5.43,1.24l88.31-48.19
	c1.88-1.02,2.49-3.24,1.36-4.95v0C213.88,172.05,211.45,171.49,209.58,172.52z"/>
<path class="st19" d="M296.66,100.94l-88.31,48.19c-1.88,1.02-2.49,3.24-1.36,4.95l0,0c1.12,1.71,3.56,2.26,5.43,1.24l88.31-48.19
	c1.88-1.02,2.49-3.24,1.36-4.95l0,0C300.97,100.47,298.54,99.91,296.66,100.94z"/>
<path class="st19" d="M306.2,108.83l-88.31,48.19c-1.88,1.02-2.49,3.24-1.36,4.95h0c1.12,1.71,3.56,2.26,5.43,1.24l88.31-48.19
	c1.88-1.02,2.49-3.24,1.36-4.95v0C310.51,108.36,308.08,107.8,306.2,108.83z"/>
<path class="st19" d="M315.68,116.02l-88.31,48.19c-1.88,1.02-2.49,3.24-1.36,4.95v0c1.12,1.71,3.56,2.26,5.43,1.24l88.31-48.19
	c1.88-1.02,2.49-3.24,1.36-4.95v0C319.99,115.55,317.56,115,315.68,116.02z"/>
<path class="st19" d="M400.09,44.86l-88.31,48.19c-1.88,1.02-2.49,3.24-1.36,4.95v0c1.12,1.71,3.56,2.26,5.43,1.24l88.31-48.19
	c1.88-1.02,2.49-3.24,1.36-4.95v0C404.4,44.39,401.97,43.83,400.09,44.86z"/>
<path class="st19" d="M409.64,52.75l-88.31,48.19c-1.88,1.02-2.49,3.24-1.36,4.95v0c1.12,1.71,3.56,2.26,5.43,1.24l88.31-48.19
	c1.88-1.02,2.49-3.24,1.36-4.95v0C413.94,52.28,411.51,51.72,409.64,52.75z"/>
<path class="st19" d="M419.12,59.94l-88.31,48.19c-1.88,1.02-2.49,3.24-1.36,4.95v0c1.12,1.71,3.56,2.26,5.43,1.24l88.31-48.19
	c1.88-1.02,2.49-3.24,1.36-4.95v0C423.43,59.47,420.99,58.91,419.12,59.94z"/>
<path class="st20" d="M163.57,322.86c-8.1,4.13-16.2,8.25-24.3,12.38c-0.51-10.87-1.02-21.73-1.53-32.6
	c8.28-3.55,16.56-7.11,24.83-10.66C162.91,302.27,163.24,312.56,163.57,322.86z"/>
<path class="st21" d="M328.32,225.62c-8.57,4.37-17.13,8.74-25.7,13.11c0.36,3.51,0.72,7.01,1.09,10.52
	c8.27-4.51,16.54-9.02,24.8-13.53C328.45,232.35,328.38,228.98,328.32,225.62z"/>
<path class="st22" d="M139.79,365.7c-11.43-5.99-22.86-11.98-34.3-17.97c0-18.64,0-37.29,0-55.93c11.43,6.21,22.86,12.43,34.3,18.64
	C139.79,328.86,139.79,347.28,139.79,365.7z"/>
<path class="st23" d="M184.45,334.99c0.11,4.58,0.22,9.15,0.33,13.73c-11.15,6.1-22.29,12.19-33.44,18.29
	c-2.45-3.53-4.9-7.06-7.35-10.59C157.48,349.27,170.96,342.13,184.45,334.99z"/>
<path class="st24" d="M182.58,335.98c0.12,2.09,0.24,4.18,0.36,6.28c86.13-45.7,172.25-91.4,258.38-137.1
	c-1.45-1.69-2.89-3.37-4.34-5.06C352.19,245.4,267.39,290.69,182.58,335.98z"/>
<path class="st25" d="M446.31,213.17c-1.84-2.59-3.68-5.18-5.51-7.77c-85.95,45.62-171.9,91.24-257.86,136.86
	c0.52,2.87,1.04,5.75,1.56,8.62C271.77,304.98,359.04,259.08,446.31,213.17z"/>
<path class="st26" d="M434.69,201.41c4.73-2.53,9.45-5.06,14.18-7.59c3.33,5.52,3.38,11.56,0.12,15.18
	c-0.72,0.81-2.1,2.04-4.54,2.84C441.19,208.36,437.94,204.89,434.69,201.41z"/>
<path class="st27" d="M473.18,180.77c0.91,2.86,1.82,5.71,2.74,8.57c-8.7,6.2-17.41,12.4-26.11,18.6c0.6-1.1,2.24-4.44,1.28-8.6
	c-0.58-2.5-1.87-4.28-2.7-5.26C456.65,189.64,464.92,185.2,473.18,180.77z"/>
</svg>
