<?xml version="1.0" encoding="utf-8"?>
<!-- Generator: Adobe Illustrator 27.7.0, SVG Export Plug-In . SVG Version: 6.00 Build 0)  -->
<svg version="1.1" id="Layer_1" xmlns="http://www.w3.org/2000/svg" xmlns:xlink="http://www.w3.org/1999/xlink" x="0px" y="0px"
	 viewBox="0 0 595.28 595.89" style="enable-background:new 0 0 595.28 595.89;" xml:space="preserve">
<style type="text/css">
	.st0{fill:#D6EFF4;}
	.st1{fill:#779D5B;}
	.st2{fill:#3B2621;}
	.st3{fill:#485F88;}
	.st4{fill:#FAC8C4;}
	.st5{fill:#F6A084;}
	.st6{fill:#E4794F;}
	.st7{fill:#D86741;}
	.st8{fill:#F0B5B1;}
	.st9{fill:none;}
	.st10{fill:#789D3F;stroke:#788C40;stroke-width:0.5;stroke-miterlimit:10;}
	.st11{fill:none;stroke:#788C40;stroke-width:0.5;stroke-miterlimit:10;}
	.st12{fill:none;stroke:#787640;stroke-width:0.5;stroke-miterlimit:10;}
	.st13{opacity:0.69;fill:#E4794F;stroke:#E4794F;stroke-width:0.75;stroke-miterlimit:10;}
	.st14{opacity:0.68;fill:#E4794F;stroke:#E4794F;stroke-miterlimit:10;}
	.st15{opacity:0.7;fill:#E4794F;stroke:#E4794F;stroke-width:0.75;stroke-miterlimit:10;}
</style>
<rect class="st0" width="595.28" height="595.28"/>
<path class="st1" d="M180.89,377.28c-13.3,2.02-23.98,0.63-30.63-0.76c-11.97-2.51-20.07-7.51-22.5-9.01
	c-4.51-2.78-17.4-10.95-24.68-26.63c-1.23-2.64-2.02-4.91-2.5-6.43c8.46-2.05,19.63-3.52,32.24-1.84
	c8.31,1.11,14.45,3.21,16.59,3.98c6.33,2.28,11.52,4.15,16.9,8.57c2.39,1.96,13.1,10.77,15.92,15.91c0.14,0.26,0.59,1.1,1.07,1.05
	c1.04-0.1,1.51-4.13,1.74-8.05c-1.69-1.43-3.89-3.44-6.26-6.03c-0.67-0.74-3.79-4.18-7.09-9.25c-4.96-7.6-8.01-15.27-9.78-20.54
	c-9.69,0.4-35.64,0.15-57.19-17.01c-13.22-10.52-20.28-23.81-23.95-30.74c-6.27-11.81-9.3-22.56-10.87-30.08
	c15.23,0.93,26.37,5.26,32.88,8.42c9.76,4.73,16.5,10.37,22.46,15.37c6.02,5.05,10.59,8.88,15.42,15.37c0,0,6.82,9.17,11.77,20.78
	c0.11,0.25,1.07,2.54,2.46,5.54c0,0,0,0.01,0,0.01c0.96,2.04,1.99,4.34,1.98,4.34c-0.01,0-1.81-3.91-2.05-4.43
	c-1.85-4.04-4.65-10.58-8.5-21.18c-1.26-4.46-2.57-10.23-3.34-17.06c-2.78-2.1-6.6-5.36-10.31-10.02
	c-6.98-8.78-9.43-17.26-11.29-24.28c-1.7-6.41-4.61-17.86-2.69-32.79c0.92-7.15,2.49-18.29,10.43-29.75
	c4.39-6.34,9.27-10.66,12.79-13.35c3.51,4.24,8.05,10.37,12.3,18.32c0.55,1.02,8.35,15.83,10.66,29.62
	c4.84,28.84-13.95,55.46-18.28,61.34c0.56,1.01,2.84,10.59,3.77,14.48c1.07,4.47,1.66,6.96,2.94,10.28
	c2.04,5.3,6.2,15.54,8.24,19.26c0.49,0.9,1.18,1.92,2.18,3.7c2.13,3.81,3.6,7.03,4.51,9.13c-2.24-5.7-4.74-13.54-6.12-23.11
	c-0.3-2.07-1.56-11.11-0.66-23.42c0.68-9.4,1.51-20.83,7.48-34.44c1.35-3.08,6.76-14.93,18.08-26.94c1.59-1.68,2.98-3.04,3.98-3.98
	c2.41,3.18,4.76,6.78,6.91,10.83c14.3,26.97,7.77,52.24,4.32,54.97c-0.34,0.27-1.89,1.3-2.8,3.24c-0.45,0.97-0.24,1.06-1,3.13
	c-0.65,1.77-1.15,2.61-1.94,5.22c-2.96,9.71-0.47,12.29-3.5,19.72c-1.58,3.87-3.59,6.43-5.59,8.98c-4.81,6.14-15.19,9.8-16.25,9.11
	c1.83,3.53,4.17,7.49,7.16,11.63c2.57,3.55,5.17,6.61,7.6,9.19c0.15,0.37,0.43,1.09,0.73,2.01c0.7,2.13,4.71,15.21-2.56,24.44
	C183.5,374.84,182.48,376.03,180.89,377.28z"/>
<path class="st2" d="M244.16,259.98c2.82-9.64,3.82-17.75,4.2-23.48c0.32-4.79,0.53-8.62-0.17-13.5c-1.34-9.3-5.13-14.99-7.86-20.33
	c-4.63-9.04-5.88-16.73-8.39-32.12c-2.35-14.45-4.34-26.68-0.87-42.2c4.1-18.33,13.36-30.24,15.55-32.97
	c3.54-4.42,13.01-15.92,29.88-22.89c11.19-4.63,20.38-5.08,31.62-5.64c13.03-0.64,25-1.24,38.96,4.27
	c12.63,4.99,20.54,12.46,25.51,17.25c11.43,11.03,16.93,22.14,20.44,29.38c6.01,12.41,8.51,24.33,13.28,47.66
	c4.78,23.38,3.13,21.72,7.51,41.17c2.27,10.09,5.7,25.29,11.88,43.73c3.72,11.08,4.17,13.7,5.59,16.74
	c6.48,13.86,16.26,22.99,23.45,28.5c0.25,4.07,0.5,8.14,0.75,12.22c-2.37,16.42-2.44,29.65-2.06,38.74
	c0.55,13.05,2.03,17.71,0.79,29.44c-0.84,7.98-1.55,6.08-5.76,27.14c-0.37,1.85-0.99,5.02-3.02,8.66c-2.79,5.01-6.55,7.87-8.58,9.38
	c-9.92,7.39-22.46,8.05-26.45,8.13c-2.55,0.01-12.72-0.24-20.57-7.83c-3.44-3.32-5.26-6.93-6.24-9.42
	c0.69-7.08,1.05-15.08,0.73-23.84c-0.46-12.41-2.18-23.35-4.23-32.45c-4.82-1.65-9.65-3.3-14.47-4.96
	c-2.37-3.56-5.86-8.85-9.99-15.37c-5.12-8.09-7.71-12.2-8.94-15.16c-3-7.19-2.98-13.52-2.82-25.88c0.38-28.94,0.42-27.45,0.42-30.56
	c0.02-22.69-2.2-27.47-1.41-46.52c0.41-9.96,1.41-17.98,2.11-22.85c-1.93-1.39-4.72-3.58-7.74-6.61c-2.74-2.74-3.92-4.43-8.02-9.5
	c-3.17-3.91-5.94-7.32-9.01-10.74c-8.46-9.4-9.25-7.72-10.98-11.29c-3.71-7.62,1.7-11.6-1.97-20.51c-2.33-5.65-4.52-4.1-8.02-11.15
	c-3.72-7.49-2.35-11.47-6.46-16.64c-2.66-3.35-6.01-5.16-8.36-6.17c-4.23,4.55-8.17,7.77-11.09,9.93c-6.64,4.9-9.64,5.49-13.8,9.91
	c-3.54,3.76-5.12,7.3-7.17,11.91c-1.5,3.38-4.97,11.37-5.62,21.91c-0.56,9.01,1.45,15.73,5.48,29.16c1.67,5.58,5.07,15.8,11.4,27.39
	c3.14,5.75,4.98,8.12,5.71,9.04c3.44,4.32,10.76,13.51,21.3,13.85c2.06,0.07,4.92-0.18,8.3-1.56c0.95,6.32,1.9,12.64,2.85,18.97
	c-1.28,1.21-2.73,2.78-4.14,4.75c-1.2,1.68-2.1,3.28-2.79,4.68c-0.55,0.51-1.42,1.21-2.64,1.68c-2.92,1.11-5.8,0.13-6.64-0.14
	c-5.69-1.82-11.94-0.97-17.86-1.82C262.32,260.74,254.47,259.94,244.16,259.98z"/>
<path class="st3" d="M397.25,324.29c-1.26-2.61-3.04-7.21-2.89-13.02c0.14-5.32,1.82-9.05,3.89-13.64
	c1.71-3.78,4.8-10.45,11.56-16.95c3.42-3.29,7.53-7.25,14.32-9.34c2.68-0.82,7.13-2.19,12.56-0.98
	c9.96,2.22,14.44,11.13,14.83,11.92c2.39,4.94,2.04,9.34,1.51,16.22c-0.66,8.51-2.89,14.57-3.39,15.85
	c-2.23,5.7-4.32,11.06-9.67,15.36c-4.7,3.78-11.54,6.43-14.32,7.25c-0.54,0.16-2.56,0.73-5.15,1.84c0,0-2.13,0.92-3.77,1.84
	c-2.6,1.47-6.41,5.92-8.5,15.18c-2.56,11.36,0.64,16.04-3.21,19.32c-2.43,2.08-6.87,2.92-9.25,1.14
	c-4.46-3.34,1.33-13.66,2.53-30.84C398.91,336.72,398.11,329.4,397.25,324.29z"/>
<path class="st4" d="M205,432.17c1.31-10.77,2.55-19.47,3.41-25.2c2.55-17.04,3.99-23.46,5.12-35.21
	c0.97-10.11,1.13-18.32,1.14-23.35c-0.38-1.31-2.11-7.81,1.69-14.03c2-3.27,4.71-5.1,6.27-5.98c2.99,0.11,7.32,0.35,12.51,0.93
	c7.87,0.88,13.45,2.06,22.74,4.08c15.84,3.44,28.62,6.3,28.62,6.3c14.88,3.33,22.35,5,23.88,5.19c10.4,1.28,18.61,0.89,33.54,0.19
	c8.17-0.39,14.91-0.94,19.48-1.36c6.96,13.86,13.92,27.72,20.88,41.57c0.13,7.91,0.25,15.81,0.38,23.72
	c-0.01,1.06,0.12,2.99,1.33,4.82c1.43,2.16,3.67,3.13,5.5,3.71c7.85,2.49,18.68,1.22,26.53,0.74c3.46-0.21,8.68-0.41,15.16-0.19
	c-0.21,8.95-0.46,17.97-0.76,27.05c-0.33,10.07-0.71,20.05-1.14,29.94c-2.52,21.05-5.05,42.1-7.57,63.15
	c-38.34,0.13-76.91,0.13-115.71,0c-34.99-0.12-69.79-0.34-104.41-0.67C204.06,502.42,204.53,467.29,205,432.17z"/>
<path class="st5" d="M209.85,491.39c24.46-12.85,43.93-24.44,57.69-33c16.13-10.04,12.84-7.96,42.42-27.65
	c9.04-6.02,20.99-13.36,36.48-24.67c4.61-3.37,8.38-6.22,10.93-8.17c0.48,0.06,13.36-6.43,17.25-6.97c1.62-0.14,4.04-0.52,6.71-1.66
	c2.82-1.2,4.15-2.51,6.23-3.84c2.13-1.36,5.45-3.01,10.37-3.84c2.49-0.12,10.82-0.65,14.89-3.3c0.73-0.47,1.26-1.01,1.41-1.71
	c0.5-2.21-3.02-4.65-3.76-5.16c-6.2-4.31-14.64-2.75-17.22-2.23c-6.67,1.33-11.36,4.31-11.34,4.37c0.03,0.06,5.02-3.6,12.33-4.9
	c12.51-2.23,20.58,4.47,24.49,0.44c1.65-1.71,1.74-4.49,1.12-6.28c-0.48-1.36-1.98-3.88-9.27-5.68
	c-12.56-3.09-23.75,0.55-23.79,0.35c-0.03-0.13,5.04-1.94,12.24-1.97c5.2-0.02,9.81,0.9,11.44,1.25c6.33,1.36,8.29,2.93,11.76,1.85
	c0.65-0.2,3.98-1.23,5-4.12c0.84-2.36-0.31-4.6-0.45-4.86c-0.49-0.93-2.36-3.84-14.85-5.29c-3.69-0.43-8.8-0.79-14.98-0.47
	c2.4-1.33,5.87-3.01,10.27-4.32c1.68-0.5,4.29-1.28,7.29-1.61c8.73-0.95,16.77,2.34,20.99,4.12c5.53,2.33,8.21,4.43,10.44,3.11
	c1.5-0.89,2.34-3.06,1.97-4.81c-0.45-2.16-2.66-3.35-3.78-3.94c-9.7-5.08-14.54-7.62-20.13-8.65c-4.91-0.9-19.7-3.62-34.35,3.41
	c-2.1,1.01-7.48,5.07-18.23,13.2c-9.3,7.03-12.58,9.93-14.5,11.69c-7.39,6.77-11.09,10.15-13.4,14.69c-0.59,1.16-2.65,5.43-6.1,11
	c-0.39,0.63-0.81,1.32-0.98,1.55c-1.24,1.68-5.77,4.25-39.22,15.5c-18.25,6.13-15.93,4.83-40.31,12.78c0,0-34.65,11.31-39.76,15.34
	c-0.1,0.08-1.4,1.11-3.38,1.6c-0.88,0.22-1.92,0.46-2.72,0c-1.25-0.71-1.3-2.75-1.31-3.73c-0.03-7.42,2.51-19.64,3.6-26.84
	c0.21-1.42,0.33-2.38,0.54-4.15c0.57-4.7,1.5-13.71,1.53-28.44c0.02-8.14,1.09-16.25,1.31-24.39c0.04-1.58,0.13-5.57,2.94-8.1
	c1.99-1.8,4.52-2.1,6.1-2.24c10-0.84,19.06,2.02,19.07,2.02c8.41,2.66,2.1-0.4,29.85,5.75c6.92,1.53,6.82,1.61,25.38,5.97
	c12.99,3.04,19.53,4.57,21.68,4.9c17.74,2.69,29.5,0.93,33.12,0.32c4.42-0.74,8.01-1.68,10.41-2.39c-0.56-1.23-1.45-3.08-2.67-5.26
	c-3.86-6.87-7.42-10.51-9.5-13.28c-4.04-5.35-4.8-10.55-6.58-20.67c-1.18-6.7-0.7-8.69-0.63-26.86c0.09-22.14-0.6-22.83,0.13-33.79
	c0.56-8.46,1.1-9.86,1.27-17.45c0.26-11.79-0.92-12.74,0-20.79c0.94-8.21,2.48-9.97,1.14-14.23c-1.05-3.35-2.66-4.34-9.14-11.15
	c-1.37-1.43-7.61-8.02-13.15-14.96c-5.19-6.5-7.79-9.75-9.55-14.16c-2.24-5.59-1.02-6.61-3.59-15.67
	c-1.59-5.58-2.71-9.55-5.44-14.16c-3.49-5.89-4.35-3.98-12.63-14.26c-1.49-1.85-4.1-5.18-8.73-8.03c-1.29-0.79-2.41-1.35-3.18-1.71
	c-1.62,1.67-4.18,4.18-7.6,6.93c-4.85,3.9-6.76,4.53-12.74,8.74c-7.57,5.33-11.38,8.07-13.15,11.85c-0.59,1.27-0.81,2.17-1.64,12.35
	c-0.76,9.32-1.14,13.98-1.13,16.17c0.01,3.48,0.08,10.3,1.95,18.78c1.03,4.66,2.64,8.93,5.85,17.47c3.08,8.18,4.62,12.27,7.29,17.47
	c1.08,2.1,4.29,8.19,9.65,15.37c4.48,5.99,6.78,9.01,9.96,10.24c5.27,2.05,10.59,0.29,16.64-1.71c5.23-1.73,8.63-3.75,13.45-6.63
	c3.54-2.11,12.78-7.62,18.69-13.86c2.17-2.29,4.67-4.27,6.88-6.53c1.83-1.86,2.69-2.85,3.29-2.61c1.23,0.49,0.34,5.68-0.62,9.04
	c-2.23,7.84-6.92,13.08-8.42,14.66c-8.02,8.48-18.28,11.55-25.98,13.86c-2.22,0.67-4.08,1.12-5.34,1.41
	c0.22,0.94,1.13,5.31-1.54,9.74c-2.55,4.22-6.61,5.61-7.6,5.93c-9.75-0.12-18.27-0.17-25.27-0.2c-35.6-0.14-28.02,0.49-30.91,0.3
	c-0.85-0.06-2.85-0.2-5.44,0.2c-4.19,0.65-7.32,2.31-11.4,4.92c-7.59,4.85-11.38,7.27-14.79,11.15c-4.48,5.1-6.53,9.96-8.01,13.56
	c-0.83,2.01-2.57,6.56-4.93,24c-1.05,7.75-0.89,8.22-2.36,20.08c-0.83,6.67-1.03,7.77-2.36,17.88c-1.49,11.36-2.29,17.38-2.98,23.5
	c-1.52,13.48-0.91,12.84-2.46,28.82c-1.21,12.39-2.14,21.96-4.21,34.65c-1.01,6.2-1.69,9.43-2.46,16.07c-1,8.6-0.5,8.56-1.44,20.69
	c-1.12,14.47-2.11,17.93,0.72,21.19c2.62,3.02,6.55,3.58,9.55,4.02C195.17,502.16,206.11,494.34,209.85,491.39z"/>
<path class="st6" d="M296.14,282.99l0.65-0.5c0.45-0.35,1.11-0.27,1.46,0.18l8.64,10.81c0.35,0.44,0.27,1.08-0.18,1.43l-0.65,0.5
	c-0.45,0.35-1.11,0.27-1.46-0.18l-8.64-10.81C295.61,283.98,295.69,283.34,296.14,282.99z"/>
<path class="st6" d="M330.48,297.57l0.66,0.69c0.36,0.38,0.98,0.4,1.37,0.05l9.64-8.79c0.39-0.36,0.41-0.96,0.05-1.34l-0.66-0.69
	c-0.36-0.38-0.98-0.4-1.37-0.05l-9.64,8.79C330.14,296.59,330.12,297.19,330.48,297.57z"/>
<path class="st6" d="M295.47,328.51c0.31-1.58,2.82-2.89,2.82-2.89c0,0,4.86,7.95,12.47,20.38c0.38,0.27,0.99,0.61,1.77,0.68
	c1.26,0.11,2.28-0.58,3.28-1.37c1.08-0.85,2.79-2.45,4.4-5.25c1.49-2.33,2.98-4.66,4.46-7c0.05-0.07,0.73-0.95,1.44-0.76
	c0.83,0.23,1.02,1.71,1.05,1.98c0.13,1.04-0.15,2.02-1.25,4.03c-1.11,2.04-2.19,3.57-3.41,5.25c-0.98,1.34-1.43,2.21-2.43,3.27
	c-0.74,0.78-1.42,1.36-1.9,1.73c-2-0.44-4.01-0.87-6.01-1.31c-2.02-0.48-4.05-0.96-6.08-1.43c-0.49-0.61-1.15-1.45-1.9-2.49
	c-0.59-0.81-1.05-1.43-1.58-2.29c-0.98-1.58-1.31-2.55-3.47-5.7C296.48,331.46,295.13,330.23,295.47,328.51z"/>
<path class="st6" d="M297.68,284.32h-31.45c-0.14,0-0.26-0.12-0.26-0.26V282c0-0.14,0.12-0.26,0.26-0.26h31.45
	c0.14,0,0.26,0.12,0.26,0.26v2.06C297.94,284.21,297.82,284.32,297.68,284.32z"/>
<path class="st6" d="M345.59,290.2h-5.16c-0.12,0-0.22-0.1-0.22-0.22v-2.59c0-0.12,0.1-0.22,0.22-0.22h5.16
	c0.12,0,0.22,0.1,0.22,0.22v2.59C345.81,290.1,345.71,290.2,345.59,290.2z"/>
<path class="st6" d="M187.44,444.14c-1.56,1.38-1.7,3.17-1.07,3.75c0.56,0.53,2.05,0.37,3.35-0.67
	c10.49-9.14,17.1-14.71,18.78-15.73c0.18-0.11,0.83-0.49,1.27-1.24c0.68-1.17,0.46-2.56,0.14-3.58
	C202.42,432.5,194.93,438.32,187.44,444.14z"/>
<path class="st6" d="M228.66,330.41c1.3-3.92,2.59-7.84,3.89-11.76c0.21-0.64-0.15-1.32-0.8-1.53l-0.61-0.19
	c-0.65-0.21-1.35,0.14-1.56,0.78c-1.42,4.32-2.84,8.65-4.26,12.97c0.59-0.06,1.18-0.11,1.79-0.16
	C227.63,330.49,228.15,330.45,228.66,330.41z"/>
<path class="st5" d="M424.15,538.32c11.2-1.81,22.39-3.62,33.59-5.42c0.12-36.55,0.32-66.28,0.48-86.85
	c0.21-26.87-1.39-53.82,0.46-80.61c1.22-17.64-1.27-35.42-0.23-53.07c0.08-1.44,0.44-6.51-1.63-12.27
	c-0.72-2.01-1.54-3.55-2.09-4.51c-0.01,2.23-0.19,5.69-1.16,9.76c-0.97,4.09-1.98,5.61-2.56,9.01c-0.41,2.41-0.64,6.03,0.46,10.77
	c0.11,6.8,0.29,18.61,0.46,33.55c0,0,0,0,0,0c-2.79,13.93-2.41,21.18-3.94,38.51c-0.44,4.99-1.31,13.88-5.3,17.97
	c-2.05,2.11-4.61,3.69-4.61,3.69c-2.11,1.31-4.07,2.07-5.53,2.53C429.77,460.35,426.96,499.34,424.15,538.32z"/>
<path class="st7" d="M298.08,234.45c0.65,3.11,1.3,6.23,1.95,9.34c2.65-0.32,6.22-0.92,10.32-2.18c3.89-1.2,8.94-2.8,14.41-6.78
	c2.19-1.59,7-5.42,10.9-11.8c1.29-2.1,2.1-3.88,2.52-4.84c2.54-5.85,3.15-11.16,3.24-14.8c-1.8,1.52-4.47,3.82-7.66,6.69
	c-6.91,6.23-6.94,6.76-10.39,9.57c-5.41,4.4-10.27,7.1-14.57,9.49C304.59,231.47,300.89,233.21,298.08,234.45z"/>
<path class="st8" d="M398.4,418.81c2.07,0.08,4.14,0.15,6.2,0.23c-2.81,39.75-5.62,79.5-8.43,119.25c-2.32-0.01-4.64-0.02-6.97-0.03
	C392.27,498.45,395.33,458.63,398.4,418.81z"/>
<path class="st8" d="M222.01,408.22c-0.63-1.14-0.51-2.54,0.32-3.54c0.86-1.04,2.31-1.45,3.62-1.01c4.48,4.58,8.96,9.15,13.43,13.73
	c-1.88,0.74-3.76,1.48-5.64,2.22C229.82,415.82,225.91,412.02,222.01,408.22z"/>
<path class="st9" d="M145.5,437.6"/>
<line class="st10" x1="111.66" y1="339.91" x2="183.05" y2="369.59"/>
<line class="st10" x1="76.05" y1="245.62" x2="162.53" y2="316.88"/>
<path class="st10" d="M140.03,166.12c1.47,33.76,2.93,67.52,4.4,101.28"/>
<line class="st11" x1="190.59" y1="219.87" x2="169.2" y2="327.26"/>
<path class="st12" d="M184.55,350.92c-2.76-3.29-6.69-8.24-10.87-14.64c-1.61-2.46-2.48-3.95-10.05-17.45
	c-7.63-13.61-8.59-15.38-9.95-18.55c-2.54-5.92-3.86-10.79-5.33-16.04c-1.9-6.75-3.13-12.54-3.93-16.85"/>
<line class="st13" x1="382.77" y1="347.72" x2="395.4" y2="343.94"/>
<line class="st14" x1="380.65" y1="362.11" x2="395.35" y2="353.99"/>
<line class="st15" x1="382.82" y1="375.29" x2="395.35" y2="365.67"/>
</svg>
