<?xml version="1.0" encoding="utf-8"?>
<!-- Generator: Adobe Illustrator 27.7.0, SVG Export Plug-In . SVG Version: 6.00 Build 0)  -->
<svg version="1.1" id="Layer_1" xmlns="http://www.w3.org/2000/svg" xmlns:xlink="http://www.w3.org/1999/xlink" x="0px" y="0px"
	 viewBox="0 0 595.28 595.89" style="enable-background:new 0 0 595.28 595.89;" xml:space="preserve">
<style type="text/css">
	.st0{fill:#D6EFF4;}
	.st1{fill:#42618C;}
	.st2{fill:#FFFFFF;}
	.st3{fill:#304A6B;}
	.st4{fill:none;stroke:#304A6B;stroke-miterlimit:10;}
	.st5{fill:#F6A084;}
	.st6{fill:#CEDBE2;stroke:#CEDBE2;stroke-miterlimit:10;}
	.st7{fill:none;stroke:#CEDBE2;stroke-miterlimit:10;}
	.st8{fill:#232840;}
	.st9{fill:#2F395A;}
	.st10{fill:#F79D86;}
	.st11{fill:#4B4054;}
	.st12{fill:#D9D6DA;}
	.st13{fill:#6486C4;}
	.st14{fill:#F6F7F5;}
	.st15{fill:#D9D6DA;stroke:#D9D6DA;stroke-width:0.25;stroke-miterlimit:10;}
	.st16{fill:none;stroke:#D9D6DA;stroke-width:0.5;stroke-miterlimit:10;}
	.st17{fill:none;stroke:#D9D6DA;stroke-width:0.25;stroke-miterlimit:10;}
	.st18{fill:none;stroke:#D9D6DA;stroke-miterlimit:10;}
	.st19{fill:#E17058;}
	.st20{fill:#395256;}
	.st21{fill:#ED6D50;}
	.st22{opacity:0.68;fill:#E4794F;stroke:#E4794F;stroke-miterlimit:10;}
</style>
<rect class="st0" width="595.28" height="595.28"/>
<path class="st1" d="M130.26,528.23c58.17-0.09,116.34-0.18,174.5-0.26c-1.21-15.25-2.28-30.85-3.16-46.78
	c-2.13-38.36-2.57-42.4-2.11-48.96c0.3-4.23,0.86-10,0.3-18.19c-0.69-10.15-2.62-17.11-4.82-25.78
	c-4.31-16.98-6.47-25.47-7.88-34.23c-0.97-6.02-0.86-7.24-3.57-43.96c-0.49-6.63-0.9-12.07-1.16-15.63
	c-34.68,0.4-69.35,0.8-104.03,1.2c-1.04,24.31-2.07,48.62-3.11,72.93c-11.39,18.57-22.77,37.13-34.16,55.7
	c-0.81,5.84-1.58,11.71-2.33,17.63C135.01,471.38,132.23,500.18,130.26,528.23z"/>
<ellipse class="st2" cx="189.48" cy="308.21" rx="5.14" ry="5.31"/>
<ellipse class="st2" cx="271.85" cy="307.13" rx="5.14" ry="5.31"/>
<path class="st3" d="M268.84,396.55h-73.27c-1.66,0-3-1.34-3-3v-59.06c0-0.56,0.45-1.01,1.01-1.01h77.26c0.56,0,1.01,0.45,1.01,1.01
	v59.05C271.85,395.2,270.5,396.55,268.84,396.55z"/>
<line class="st4" x1="285.07" y1="479.88" x2="183.71" y2="479.88"/>
<path class="st5" d="M87.11,462.5c7.17-8.08,14.35-16.16,21.52-24.24c0.62,0.95,1.53,2.38,2.63,4.13c3.67,5.86,3.65,6.51,5.61,9.24
	c2.51,3.5,4.62,5.42,6.55,7.15c2.43,2.18,3.67,3.27,4.61,3.02c2.28-0.61,1.2-5.92,5-12.83c1.32-2.4,2.65-3.94,3.74-5.18
	c2.43-2.78,5.37-6.14,9.46-6.44c0.45-0.03,3.58-0.27,4.48,1.42c0.8,1.49-0.58,3.7-1.43,5.05c-1.69,2.7-2.83,2.66-5.37,5.73
	c-1.52,1.85-3.5,4.3-2.86,6.38c0.05,0.17,0.41,1.31,1.39,1.76c0.73,0.34,1.46,0.14,1.77,0.05c1.95-0.55,2.93-0.83,7.46-3.14
	c3.22-1.64,6.29-1.4,10.21-1.1c2.63,0.2,4.55,0.81,8.4,2.01c1.12,0.35,2.43,0.8,3.65,1.98c0.43,0.42,1.5,1.47,1.91,3.2
	c0.28,1.17,0.44,3.41-0.66,4.13c-0.65,0.42-1.4,0.11-2.83-0.33c0,0-2.66-0.82-5.58-1.33c-3.62-0.63-7.22-0.18-7.22-0.18l0,0
	c0.58,0.23,1.48,0.56,2.61,0.85c1.05,0.26,1.84,0.37,2.18,0.41c4.59,0.63,6.89,0.94,8.66,1.6c1.09,0.4,2.17,1,4.33,2.2
	c1.91,1.06,2.33,1.41,2.69,1.85c0.11,0.14,2.08,2.67,1.07,4.8c-0.91,1.93-3.58,2.1-4.36,2.16c-2.4,0.16-3.03-0.87-6.39-1.91
	c-4.44-1.38-8.05-1-10.32-0.77c-0.5,0.05-3.34,0.34-3.34,0.77c0,0.15,0.32,0.27,0.61,0.35c2.98-0.39,5.45-0.23,7.21,0
	c2.53,0.34,4.41,0.95,5.85,1.43c2.5,0.83,4.53,1.79,6.03,2.59c1.52,1.78,1.91,3.96,1.07,5.3c-0.88,1.4-2.94,1.41-4.12,1.42
	c-2.92,0.01-3.31-1.31-7.48-2.43c-1.34-0.36-3.96-0.94-7.15-0.65c-1.14,0.1-2.81,0.35-2.8,0.55c0.01,0.18,1.41,0.25,2.17,0.3
	c3.95,0.26,8.41,0.54,11.89,2.76c1.55,0.98,4.17,3.16,3.73,4.88c-0.35,1.35-2.44,1.86-3.19,2.05c-2.95,0.72-5.33-0.19-8.5-1.28
	c-10.14-3.49-12.89-3.5-15.16-2.75c-1.39,0.46-2.42,1.14-3.05,1.61c-3.09,1.53-4.93,3.37-6.06,4.81c-1.63,2.08-2.08,3.73-3.85,4.51
	c-1.79,0.79-3.78,0.18-5.21-0.48c-7.38-6.37-14.83-12.94-22.35-19.72C99.75,474.24,93.35,468.35,87.11,462.5z"/>
<path class="st1" d="M84.33,467.2c5.37-4.32,11.29-9.63,17.33-16.1c6.33-6.78,11.45-13.41,15.55-19.35
	c-3.35-6.27-6.7-12.54-10.05-18.8c-5.93,7.64-11.86,15.27-17.8,22.91c-5.79,5.91-11.59,11.82-17.38,17.72
	C76.09,458.13,80.21,462.66,84.33,467.2z"/>
<path class="st2" d="M73.02,452.29c-8.41-9.68-15.06-17.02-19.68-22.05c0,0-13.62-15.25-19.2-23.17c-1.57-2.23-1.28-2.21-6.56-7.96
	c-4.56-4.97-9.64-10.19-12.35-18.8c-2.36-7.47-1.43-12.72-1.05-14.48c1.03-4.73,3.24-7.95,4.19-9.29
	c16.12-22.93,24.18-34.4,25.13-35.45c26.11-28.9,20.5-28.2,40.83-48.85c16.42-16.68,24.63-25.02,36.85-31.34
	c8.24-4.26,12.66-5.06,40.2-15.35c11.04-4.12,20.04-7.62,25.96-9.94c2.12,3.3,5.49,7.85,10.47,12.32
	c5.24,4.7,15.01,13.47,29.1,13.62c3.31,0.03,14.08,0.15,22.82-8.21c6.35-6.07,8.34-13.47,9-16.64c4.75,0.72,9.49,1.44,14.24,2.16
	c10.89,3.75,21.78,7.49,32.66,11.24c8.45,4.47,16.89,8.93,25.33,13.4c2.61,1.76,6.86,5.14,10.26,10.81
	c4.94,8.22,5.13,16.32,5.03,19.67c3.28,36.74,6.56,73.49,9.84,110.23c11.38,12.75,22.75,25.5,34.13,38.26
	c-2.72,6.99-5.44,13.98-8.17,20.97c-4.89,7.42-9.77,14.84-14.66,22.26c-8.93-4.59-16.26-8.65-21.57-11.67
	c-22.46-12.79-29.66-18.93-32.45-21.4c-5.91-5.23-10.24-10.1-12.98-13.4c-1.02-4.08-2.67-10.1-5.16-17.24
	c-0.79-2.25-1.5-4.17-2.15-5.86c-2.3-5.91-4.04-9.99-4.52-11.13c-4.17-9.86-4.81-22.81-5.3-32.76c-0.25-5.03-0.21-8.69-0.14-16.02
	c0.12-12.1,0.67-15.89,0.46-24.64c-0.1-3.98-0.37-9.89-1.23-17.14c-34.68,0.4-69.35,0.8-104.03,1.2
	c-0.98,25.08-1.96,50.15-2.94,75.23c-11.44,17.8-22.88,35.6-34.32,53.4c-1.37-20.17-3.59-41.48-6.91-63.75
	c-1.37-9.15-2.86-18.07-4.46-26.75c-14.58,13.52-29.16,27.04-43.75,40.56c7.14,13.02,14.29,26.05,21.43,39.07
	c-4.11,6.2-9.15,13.01-15.28,20.02C85.49,440.97,78.96,447.21,73.02,452.29z"/>
<line class="st6" x1="158.97" y1="307.13" x2="129.7" y2="333.76"/>
<path class="st6" d="M353.31,383.23c-1.76,2.75-5.08,7.2-10.59,11c-5.63,3.87-11,5.32-14.16,5.92"/>
<line class="st7" x1="64.78" y1="359.97" x2="80.95" y2="369"/>
<path class="st7" d="M56.57,377.21c2.62-1.96,6.71-4.55,12.19-6.29c4.86-1.55,9.14-1.91,12.19-1.92"/>
<line class="st7" x1="316.7" y1="298.35" x2="301.77" y2="310.21"/>
<line class="st7" x1="302.45" y1="308.53" x2="299.24" y2="408.41"/>
<path class="st8" d="M274.85,219.51c4.87,1.66,9.74,3.32,14.61,4.98c-2.37,23.32-4.73,46.63-7.1,69.95
	c-4.76,0.06-9.51,0.11-14.27,0.16C270.34,269.57,272.6,244.54,274.85,219.51z"/>
<path class="st9" d="M180.55,218.27c4.17,9.47,8.7,22.08,11.64,37.39c2.99,15.6,3.41,29.28,3.01,39.8
	c-5.03,0.05-10.06,0.11-15.09,0.16c0.62-9.44,0.33-17.53-0.19-23.79c-0.7-8.41-1.24-14.99-3.78-23.39c-1.36-4.49-3.43-10-6.42-17.93
	c-1.11-2.96-2.06-5.4-2.71-7.07C171.53,221.72,176.04,220,180.55,218.27z"/>
<path class="st1" d="M366.51,467.7c5.37,3.9,10.74,7.8,16.12,11.7c3.92-3.29,8.98-8.31,13.47-15.47
	c7.03-11.19,9.19-22.05,9.95-28.34c-4.95-4.33-9.91-8.67-14.86-13C382.96,437.64,374.73,452.67,366.51,467.7z"/>
<path class="st10" d="M391.72,470.09c10.01,5.38,17.76,9.76,23.04,12.8c6.52,3.75,13.65,7.98,24.25,12.6
	c1.22,0.53,2.23,0.96,2.91,1.24c3.63-17.53,7.27-35.05,10.9-52.58c-2.23,10.93-8.29,18.09-14.12,18.08c-1.19,0-3.07-0.31-5.36-2.03
	c-9.39-6.43-18.77-12.86-28.16-19.28c-0.86,4.36-2.41,10.06-5.38,16.27C397.2,462.64,394.25,466.93,391.72,470.09z"/>
<path class="st11" d="M393.8,296.83c60.11,16.53,120.23,33.07,180.34,49.6c1.45-5.54,2.89-11.08,4.34-16.63
	c-60.88-16.23-121.76-32.47-182.65-48.7C395.16,286.35,394.48,291.59,393.8,296.83z"/>
<path class="st12" d="M393.23,296.39c-0.5,1.52-1,3.03-1.49,4.55c60.85,16.11,121.69,32.21,182.54,48.32c0.2-1.87,0.4-3.73,0.6-5.6
	C514.32,327.91,453.77,312.15,393.23,296.39z"/>
<path class="st13" d="M493.93,328.11c-4,17.55-8,35.1-12,52.65c-7-1.47-13.99-2.94-20.99-4.4c3.54-18.1,7.07-36.19,10.61-54.29
	C479.01,324.08,486.47,326.1,493.93,328.11z"/>
<path class="st14" d="M402.56,282.9c1.06-13.5,2.11-27,3.17-40.49c8.39,0.18,4.96,0.11,13.36,0.29c0,0.11,0,0.18,0,0.23c0,0,0,0,0,0
	c0,0.07,0,0.08,0,0.17c0,0.01,0,0.02,0,0.02c0,0.06,0.02,2.31,0.09,7.71c0.68-0.1,1.36-0.2,2.03-0.31l0.06-5.76
	c0.01-0.94,0.86-1.64,1.75-1.44c7.24,1.61,14.47,3.23,21.71,4.84c0.59,0.13,1,0.69,0.97,1.31l-0.49,9.35
	c0.86,0.03,1.71,0.06,2.57,0.09l0.3-8.88c0.03-0.81,0.76-1.39,1.52-1.21c9.88,2.27,19.75,4.53,29.63,6.8
	c0.8,0.18,1.35,0.94,1.3,1.79l-0.75,12.36c0.86,0.03,1.71,0.06,2.57,0.09c0.07-1.9,0.13-3.79,0.2-5.69c0.8,0.03,1.59,0.06,2.39,0.09
	l0.19-5.43c0.02-0.71,0.68-1.22,1.35-1.03c22.37,6.34,45.09,12.52,68.14,18.5c6.01,1.56,12.01,3.1,17.99,4.61
	c0.64,0.16,1.08,0.74,1.09,1.42c0.03,3.14,0.05,6.29,0.08,9.43c0.49,0.09,0.98,0.17,1.47,0.26c0.15-2.86,0.31-5.72,0.46-8.58
	c0.04-0.77,0.75-1.33,1.48-1.16c3.85,0.89,7.7,1.78,11.54,2.67c-5.61,14.37-11.23,28.74-16.84,43.11
	C515.43,312.99,459,297.95,402.56,282.9z"/>
<line class="st15" x1="411.95" y1="251.77" x2="408.39" y2="283.63"/>
<line class="st16" x1="427.75" y1="287.74" x2="431.55" y2="250.01"/>
<line class="st16" x1="454.46" y1="258.29" x2="450.72" y2="295.74"/>
<line class="st17" x1="456.35" y1="273.54" x2="454.27" y2="296.68"/>
<line class="st16" x1="476.01" y1="263.83" x2="471.5" y2="301.28"/>
<line class="st17" x1="490.39" y1="266.85" x2="486.42" y2="305.26"/>
<line class="st16" x1="498.75" y1="272.86" x2="494.83" y2="307.5"/>
<line class="st16" x1="509.32" y1="271.85" x2="506.49" y2="296.9"/>
<line class="st17" x1="438.96" y1="295.24" x2="436.74" y2="327.64"/>
<line class="st17" x1="445.82" y1="300.02" x2="439.2" y2="328.3"/>
<line class="st16" x1="460.87" y1="297.15" x2="448.03" y2="330.65"/>
<line class="st18" x1="402.31" y1="281" x2="572.1" y2="328.11"/>
<path class="st5" d="M187.34,215.62c4.65-2.74,11.79-7.95,15.71-16.77c2.12-4.78,2.54-8.91,2.9-19.73
	c0.26-7.86,0.46-18.26,0.29-30.6c-0.63,0.72-1.63,1.62-3.03,1.92c-3.98,0.85-7.8-3.89-8.95-5.32c-1.95-2.42-2.86-5.53-4.69-11.76
	c-2.02-6.87-1.82-8.62-0.85-9.8c1.15-1.4,3.16-1.74,4.4-1.96c1.87-0.32,3.26-0.02,5.97,0.56c2.8,0.6,4.2,0.9,5.4,1.82
	c1.88,1.43,2.57,3.43,3.13,5.04c1.4,4.07,0.37,6.49,2.13,7.7c0.13,0.09,1.32,0.87,2.28,0.35c0.74-0.41,0.92-1.36,0.96-1.59
	c0.48-7.58,0.77-10.79,0.96-12.11c0.06-0.41,0.3-2.05,0.32-4.27c0-0.36,0-0.61,0-0.66c-0.01-1.34,1.44-4.17,6.9-10.35
	c-0.06-0.81-0.21-2.03-0.69-3.4c-0.46-1.32-0.95-2.02-1.59-3.12c-1.44-2.49-2.37-4.09-2.65-6.08c-0.09-0.6-0.53-4.14,1.38-5.71
	c1.2-0.98,2.81-0.77,3.8-0.64c4.67,0.6,9.43,0.4,14.06,1.26c0.36,0.07,3.7,0.28,10.37,0.7c9.48,0.6,14.22,0.9,15.06,0.84
	c6.75-0.5,9.37-2.22,16.63-1.71c1.88,0.13,3.43,0.37,4.46,0.55c-0.32,2.5-0.78,6.18-1.27,10.65c-1.05,9.76-1.58,14.73-1.41,19.27
	c0.24,6.56,0.15,10.03,1.65,14.45c0.45,1.32,2.26,6.21,1.21,12.26c-0.57,3.3-1.45,3.78-3.52,8.76c-2.15,5.17-4.93,13.39-8.38,24.21
	c-0.21,0.66-0.7,2.22-2.13,3.36c-0.65,0.52-2.11,1.44-7.1,1.4c-2.42-0.02-4.25-0.25-6.39-0.56c-4.61-0.66-6.92-0.99-9.52-1.54
	c-2.51-0.53-6.69-1.44-11.93-3.36c-2.75-1.01-5.02-2.01-6.68-2.8c0.31,1.25,0.9,3.04,2.13,4.9c0.56,0.86,1.86,2.63,7.96,6.44
	c1.39,0.87,8.54,5.28,12.93,6.16c0.22,0.04,1.78,0.35,3.84,0.7c1.09,0.19,1.98,0.33,2.56,0.42c-0.02,3.51,0.01,7.74,0.14,12.6
	c0.08,3.05,0.3,5.38,1.99,7.14c1.27,1.32,2.89,1.78,3.99,1.96c-0.49,2.12-1.4,5.09-3.19,8.32c-1.16,2.09-3.64,6-8.03,9.41
	c-5.69,4.43-11.36,5.53-14.89,6.18c-5.58,1.02-10.04,0.54-12.23,0.28c-1.89-0.22-4.76-0.56-8.25-1.76
	c-4.67-1.6-7.63-3.75-12.65-7.42c-3.88-2.83-6.57-4.78-9.61-8.23C190.39,220.83,188.53,217.82,187.34,215.62z"/>
<path class="st19" d="M226.11,176.19c1.57,0.88,3.78,2.03,6.52,3.13c1.44,0.58,4.17,1.61,9.47,2.88c3.53,0.84,8.21,1.8,13.85,2.49
	c-0.01,3.61-0.02,7.21-0.03,10.82c-2.06-0.16-4.95-0.56-8.28-1.64c-2.39-0.78-4.11-1.62-5.48-2.3c-2.96-1.46-4.87-2.77-8.44-5.22
	c-3.65-2.5-4.26-3.18-4.57-3.55C227.2,180.5,226.44,177.93,226.11,176.19z"/>
<path class="st20" d="M210.9,138.41c-1.75-0.28-2.69-2.01-2.96-3.13c-0.12-0.49-0.06-0.66-0.1-1.38c-0.1-2.21-0.75-3.9-1.28-5.27
	c-0.73-1.89-1.09-2.83-1.93-3.75c-1.16-1.28-2.51-1.7-4.39-2.32c-1.64-0.54-3.15-0.75-5.23-1.05c-0.8-0.11-1.46-0.19-1.93-0.24
	c-0.69-1.5-1.37-3.16-2-4.98c-0.91-2.61-1.4-4.61-2.06-7.46c-1.64-7.05-2.45-10.58-2.65-12.32c-0.52-4.71-0.84-7.06-0.06-9.89
	c1.44-5.25,5.54-8.58,8.54-10.41c0.11-2.25,0.67-6.91,3.97-10.92c2.88-3.49,6.39-4.74,10.06-6.04c4.37-1.55,7.94-1.81,11.87-2
	c3.25-0.16,6.5,0.03,12.99,0.42c3.07,0.18,6.22,0.38,10.46,0.79c1.35,0.13,2.4,0.24,12.4,1.52c8.41,1.07,9.24,1.19,10.93,1.7
	c5.39,1.62,8.61,3.9,9.35,4.43c2.57,1.86,4.38,3.84,5.53,5.28c0.06,3.12,0.07,6.36,0,9.71c-0.09,4.32-0.12,6.65-0.37,9.88
	c-0.04,0.55-0.11,1.41-0.22,2.56c-0.34,3.35-0.79,6.1-1.15,8.04c-0.64-0.03-1.27-0.06-1.91-0.1c-0.08-0.87-0.16-1.74-0.24-2.61
	c-0.24-2.7-0.47-5.39-0.68-8.06c-6.47,1.15-11.76,1.41-15.37,1.45c-1.33,0.01-1.69-0.01-17.15-1.03
	c-13.59-0.89-13.71-0.9-14.41-1.04c-2.92-0.58-5.95-0.29-8.88-0.85c-1.3-0.25-3.19-0.67-4.47,0.42c-0.81,0.69-1.02,1.7-1.18,2.43
	c-0.52,2.44,0.34,4.54,1.01,6.12c1.08,2.55,2.09,2.29,3.53,5.22c1.32,2.7,1.08,3.91,1,4.25c-0.34,1.39-1.38,2.01-2.35,2.91
	c-2.19,2.03-2.97,4.46-4.09,7.95c-0.32,1.01-0.74,2.55-1.2,9.82c-0.23,3.53-0.34,6.55-0.41,8.86
	C213.72,137.53,212.5,138.66,210.9,138.41z"/>
<path class="st21" d="M465.57,377.03c-11.07,52.87-22.13,105.75-33.2,158.62c4.88,1.27,9.76,2.54,14.64,3.82
	c6.84-35.54,13.76-71.16,20.75-106.84c3.51-17.9,7.03-35.78,10.56-53.64C474.07,378.33,469.82,377.68,465.57,377.03z"/>
<path class="st10" d="M455.47,495.46c0.39-0.94,0.84-2.46,0.65-4.29c-0.09-0.9-0.19-1.87-0.85-2.79c-0.67-0.95-1.22-0.84-2.57-2.09
	c-0.77-0.72-1.34-1.24-1.73-2.1c-0.15-0.32-1.07-2.35,0.04-4.13c0.76-1.22,2.23-1.92,3.49-1.69c0.46,0.08,0.85,0.32,1.59,0.85
	c1.09,0.78,1.17,1.03,2.92,2.55c1.71,1.48,2.05,1.61,2.45,2.01c0.03,0.03,0.06,0.05,0.07,0.05c0.02-0.02-1.51-1.54-2.81-2.81
	c-1.43-1.39-2.14-2.08-2.95-2.79c-1.92-1.69-3.04-2.61-3.04-2.61c-1.29-1.05-1.7-1.33-2-2.05c-0.56-1.35-0.05-2.65,0-2.77
	c0.1-0.23,0.51-1.18,1.51-1.73c1.1-0.6,2.21-0.34,3.1-0.14c0.9,0.21,1.61,0.61,3,1.4c1.16,0.66,2.32,1.32,3.66,2.38
	c0.37,0.29,0.85,0.7,1.62,1.2c0.86,0.57,1.73,1.03,1.75,0.99c0.03-0.04-0.87-0.62-2.27-1.59c-2.56-1.78-2.39-1.81-4-2.9
	c-2.93-1.99-3.66-2-4.5-3.33c-0.32-0.5-0.94-1.52-0.85-2.9c0.01-0.18,0.16-2.08,1.38-2.9c1.52-1.02,3.84,0.22,6.8,1.85
	c3.1,1.71,5.15,3.49,5.18,3.44c0.03-0.04-1.68-1.48-3.93-3.1c-0.83-0.6-1.03-0.72-1.81-1.3c-1.69-1.27-2.55-1.92-3.07-2.7
	c-0.54-0.81-0.73-1.57-1.11-3.09c-0.53-2.12-0.8-3.18-0.43-3.57c0.86-0.9,3.38,1.69,9.48,4.06c0.99,0.38,2.43,0.86,3.77,2.25
	c0,0,1.24,1.23,2.02,3.01c1.35,3.11,0.75,6.93-0.29,12.08c-1.42,6.98-2.13,10.47-3.29,13.4c-0.15,0.37-1.96,4.84-5.6,9.8
	c-2.31,3.14-3.93,4.64-5.93,4.69c-1.06,0.03-1.94-0.36-2.53-0.7C454.73,499.43,455.1,497.45,455.47,495.46z"/>
<line class="st22" x1="146.61" y1="468.47" x2="161.26" y2="462.92"/>
<line class="st22" x1="147.52" y1="476.81" x2="159.08" y2="474.2"/>
<line class="st22" x1="143.44" y1="484.96" x2="157.36" y2="483.48"/>
<line class="st22" x1="136.96" y1="463.31" x2="142.57" y2="457.3"/>
</svg>
