<?xml version="1.0" encoding="utf-8"?>
<!-- Generator: Adobe Illustrator 27.7.0, SVG Export Plug-In . SVG Version: 6.00 Build 0)  -->
<svg version="1.1" id="Layer_1" xmlns="http://www.w3.org/2000/svg" xmlns:xlink="http://www.w3.org/1999/xlink" x="0px" y="0px"
	 viewBox="0 0 595.28 595.89" style="enable-background:new 0 0 595.28 595.89;" xml:space="preserve">
<style type="text/css">
	.st0{fill:#D6EFF4;}
	.st1{fill:#FAB37C;}
	.st2{fill:#F89849;}
	.st3{fill:#42618C;}
	.st4{fill:#EC7E2A;}
	.st5{fill:#ED7E2A;}
	.st6{fill:#FAB27D;}
	.st7{fill:#F3A571;}
	.st8{fill:#EA7D33;}
	.st9{fill:#AECBAA;}
	.st10{opacity:0.6;fill:none;stroke:#006936;stroke-width:0.25;stroke-miterlimit:10;}
	.st11{opacity:0.41;fill:none;stroke:#006936;stroke-width:0.25;stroke-miterlimit:10;}
	.st12{fill:#ED9B55;}
	.st13{fill:#2E3B63;}
	.st14{fill:#FCD288;}
	.st15{fill:#ECBC78;}
	.st16{fill:#E3AD5C;}
	.st17{fill:#304A6B;}
</style>
<rect class="st0" width="595.28" height="595.28"/>
<path class="st1" d="M266.9,241.83c3.76,0.77,9.4,13.48,14.04,22.79c1.82,3.65,2.28,7.82,4,11.51c0.27,0.57,1.01,2.11,0.47,3.71
	c-0.29,0.85-0.84,1.42-1.28,1.81c-3.13,2.8-7.51,3.49-7.51,3.49c-15.63,2.47-12.71,3.52-22.83,3.81c-2.67,0.08-9.78,0.2-27.71-1.85
	c-8.78-1.01-16.01-2.06-21-2.84c-3.18-6.83-5.74-12.22-7.43-15.73c-3.19-6.66-4.99-10.27-6.73-15.83c-1.06-3.38-1.71-6.24-2.11-8.19
	c3.53-0.92,7.06-1.83,10.59-2.75c1.18-1.72,3.16-4.58,5.66-8.11c5.31-7.49,6.61-9.02,8-12.41c1.22-2.97,2.61-6.48,2.01-10.94
	c-0.37-2.76-0.82-6.08-3.14-8.06c-0.45-0.38-1.3-1-1.77-2.15c-0.53-1.28-0.2-2.28,0-3.76c0.4-2.93,0.02-5.55-0.45-7.13
	c-0.37-1.24-0.43-0.6-2.24-4.16c-1.96-3.86-2.32-5.41-2.46-6.09c-0.06-0.31-0.16-1.38-0.35-3.52c-0.34-3.83-0.32-4.71-0.29-5.22
	c0.05-0.95,0.18-2.32,0.61-3.98c2.05-0.2,4.68-0.59,7.66-1.39c5.99-1.59,10.11-3.93,11.19-4.55c1.72-1,6.53-3.81,10.98-8.71
	c1.08-1.2,1.66-2.13,2.07-1.98c1.02,0.37,0.93,7.18-3.08,10.77c-2.62,2.35-4.86,1.47-6.86,4.28c-1.11,1.56-3.1,6.95-2.36,5.2l0,0
	c0.01-0.01,13.22-12.16,15.01-14.64c2.84-3.93,4.77-8.51,8.6-17.67c1.87-4.46,3.06-7.92,3.93-10.72c0.76-2.44,1.32-4.53,1.71-6.1
	c1.32,0.63,3.17,1.54,5.36,2.72c4.35,2.36,6.56,3.58,8.06,5.44c0.94,1.16,1.59,2.65,2.88,5.62c0.88,2.02,1.58,3.62,2.11,5.62
	c0.85,3.22,0.27,3.73,1,10.39c0.38,3.53,0.72,5.02,1.79,6.59c0.98,1.45,2.2,2.38,3.08,2.94c-0.4,6.37-0.81,11.9-1.17,16.37
	c-0.33,4.04-0.75,8.91-2.08,15.12c-1.28,5.98-2.5,8.97-5.06,11.49c-1.89,1.86-3.95,2.9-5.39,3.48c-2.19,0.2-5.35,0.39-9.15,0.31
	c-6.5-0.15-11.28-1.05-17.02-2.15c-4.45-0.86-10.27-2.15-17.02-4.14c0.89,1.85,2.42,4.52,4.98,7.21c3.41,3.59,6.89,5.35,9.95,6.91
	c1.37,0.7,5.91,2.92,12.36,4.3c2.93,0.63,5.46,0.91,7.36,1.05c0.04,3.4,0.18,6.44,0.35,9.08c0.04,0.61,0.57,3.27,1.61,8.59
	c0.11,0.57,0.36,1.75,1.35,2.6c0.65,0.55,1.4,0.78,1.76,0.89c0.94,0.28,1.6,0.18,2.41,0.18
	C263.35,241.29,264.27,241.29,266.9,241.83z"/>
<path class="st2" d="M225.91,346.53c-2.05-16.36-3.63-23.43-4.75-26.73c-0.58-1.71-1.08-3.45-1.75-5.13
	c-1.78-4.42-2.94-5.51-2.65-7.88c0.27-2.22,1.61-4.01,1.79-4.24c0,0,0,0,0,0c0.39-0.56,2.72,0.33,3.09,0.46
	c2.77,0.95,7.36-2.42,14.64-4.43c1.04-0.29,6-1.61,12.58-1.75c0.93-0.02,1.61-0.01,1.9-0.01c6.97,0.08,23.99-0.82,39.2-1.48
	c2.51-0.11,8.53-0.31,14.38,2.42c1.96,0.91,3.58,2.01,4.53,3.76c1.44,2.67,0.54,5.53,0.21,7.1c-2.07,9.8,1.84,20.51,2.34,20.47
	c0.08-0.01,0.22-0.27,0.22-6.93c-0.01-9.18-0.01-13.77-0.38-17.8c-0.17-1.8-0.39-3.45-4.32-18.91c-6.62-25.99-4.21-14.34-6.39-23.33
	c-0.72-2.99-1.9-8.01-5.27-13.88c-1.09-1.9-2.13-3.4-2.86-4.4c-8.49-0.67-16.98-1.34-25.48-2.02c2.49,5.32,4.8,9.48,6.41,12.25
	c2.94,5.06,5.34,8.52,8.44,14.7c4.39,8.73,4.03,10.62,3.39,11.74c-1.35,2.39-4.8,2.87-10.4,3.39c-15.87,1.48-27.89,1.37-27.89,1.37
	c-17.6-0.16-19.04-0.21-21.33-0.36c-8.22-0.53-15.09-1.44-20.12-2.23c-3.32-5.53-6.62-11.62-9.72-18.3
	c-1.31-2.82-2.51-5.58-3.62-8.29c-1.08-3.87-2.16-7.73-3.24-11.6c-3.77,0.23-9.04,0.86-15.07,2.67c-6,1.79-10.23,3.98-13.49,5.69
	c-2.97,1.56-8.05,4.25-13.64,8.86c-4.21,3.47-4.84,4.82-10.33,10.01c-4.46,4.22-8.32,7.37-10.78,9.29
	c-0.56,0.47-1.35,1.28-1.73,2.45c-0.63,1.9,0.15,3.66,0.6,4.68c4.7,10.63,4.51,10.37,5.13,11.38c1.29,2.12,2.9,4.79,5.5,7.93
	c1.44,1.74,6.31,7.38,14.55,12.46c7.96,4.91,15.59,7.15,20.88,8.24c0.28,0.13,1.43,0.6,2.79,0.19c1.8-0.55,2.42-2.19,2.49-2.38
	c3.2-4.22,6.4-8.43,9.6-12.65c1.93,0.9,4.49,2.2,7.35,4.01c2.12,1.34,4.06,2.75,6.73,4.9c5.25,4.23,8.99,7.86,9.99,8.84
	C213.07,334.67,218.41,339.73,225.91,346.53z"/>
<path class="st3" d="M155.98,545.45c44.7,0.06,89.39,0.13,134.09,0.19c5.23-12.95,10.27-23.26,14.2-30.75
	c3.76-7.17,5.65-10.76,8.31-15.02c2.63-4.22,5.93-9.05,10.2-16.91c0.61-1.13,1.11-2.06,1.42-2.67c-1.21-23.37-2.42-41.35-3.31-53.66
	c-0.9-12.44-1.43-18.19-2.16-30.82c-0.97-16.7-0.72-18.19-1.58-26c-1.8-16.39-3.45-15.02-5.18-31.37
	c-0.97-9.15-0.97-14.52-2.73-28.34c-0.56-4.36-1.08-7.95-1.44-10.32c-1.97-1.56-3.93-3.12-5.9-4.68c-0.22-2.85-0.74-7-2.16-11.83
	c-1.86-6.35-4.31-10.62-7.2-15.68c-5.05-8.88-7.49-12.2-12.81-22.7c-0.62-1.23-1.12-2.24-1.44-2.89c-3.55-0.14-7.1-0.28-10.65-0.41
	c3.03,3.5,6.22,7.58,9.36,12.24c2.86,4.25,4.95,7.31,7.05,11.83c3.04,6.54,4.22,12.04,5.18,16.65c1.03,4.93,1.5,9.11,1.73,12.11
	c-20.01,1.15-40.01,2.29-60.02,3.44c-3.35-8.66-7.26-15.52-10.51-20.5c-5.54-8.49-10.9-14.18-14.82-18.3
	c-6.11-6.42-11.94-11.42-16.7-15.13c-3.02,0.5-6.04,1.01-9.07,1.51c3.9,2.79,8.96,6.82,14.25,12.24
	c7.92,8.12,12.49,15.44,15.11,19.67c3.3,5.34,7.17,12.53,10.51,21.46c0.38,0.65,0.81,1.63,0.43,2.48c-0.38,0.84-1.3,0.98-2.02,1.51
	c-1.33,1-1.53,3.06-1.3,5.5c0.58,6.05,3.82,13.94,5.33,18.57c1.8,5.53,2.26,9.93,2.59,13.07c0.45,4.25,1.2,11.42-0.72,18.99
	c-2.17,8.53-6.79,13.77-13.82,21.74c-9.39,10.65-18.62,16.26-21.16,17.75c-5.29,3.11-10.08,5.15-13.67,6.47
	c-3.36,9.08-6.72,18.16-10.08,27.24c4.37,4.88,8.73,9.75,13.1,14.63c4.08,1.5,8.15,3,12.23,4.49c0.75-0.74,1.57-1.49,2.48-2.24
	c2.81-2.32,5.64-3.96,8.11-5.13c0.45,0.87,0.89,1.75,1.34,2.62c1.49-0.81,3.75-1.83,6.66-2.46c2-0.43,3.52-0.76,5.42-0.51
	c3.33,0.44,5.53,2.36,8.37,4.84c1.35,1.18,2.62,2.68,5.16,5.68c4.11,4.86,4.65,6.19,4.4,7.55c-0.22,1.2-1.02,2.3-2.04,2.93
	c-1.8,1.1-3.84,0.44-7.09-0.2c-2.67-0.52-5.68-1.11-8.49-1.1c-3.6,0.02-3.49,1.01-13.63,3.4c-4.3,1.02-3.62,0.67-5.67,1.26
	c-2.46,0.7-3.73,1.28-5.75,1.12c-1.03-0.08-1.76-0.32-3.21-0.84c-5.2-1.88-7.42-2.94-7.42-2.94c-4.52-2.15-7.93-4.06-8.66-4.48
	c-3.72-2.1-8.43-4.8-13.92-8.05c-1.19,4.36-2.83,11.3-3.71,19.99c-0.5,4.97-0.53,8.19-0.57,23.84c-0.03,13.83-0.48,13.07,0,22.63
	C152.74,525.53,153.59,534.54,155.98,545.45z"/>
<path class="st4" d="M175.37,404.89c2.32-0.55,5.77-1.5,9.76-3.13c2.6-1.06,31.95-13.55,38.75-42.06c0.89-3.73,1.79-9.39,1.16-16.55
	c-0.34-0.34-0.75-0.74-1.21-1.2c0,0-0.24-0.23-0.47-0.46c-0.6-0.58-6.82-6.41-10.42-9.47c-3.59-3.05-13.13-10.62-26.95-19.5
	c-2.8,1.93-4.5,3.87-5.52,5.25c-2.42,3.27-3.1,6.18-6.62,8.91c-0.87,0.67-1.65,1.13-2.14,1.4c-1.96-0.35-3.92-0.69-5.89-1.04
	c-1.9,1.89-3.81,3.78-5.71,5.67c4.92,10.34,10.23,24.34,13.13,41.44C175.21,385.75,175.63,396.17,175.37,404.89z"/>
<path class="st5" d="M292.59,244.32c5.2,11.46,8.39,20.69,10.34,27.07c1.21,3.94,1.91,6.25,2.57,9.63c1.18,6.08,0.8,8.25,2.29,18.75
	c0.26,1.84,0.44,2.93,0.84,5.87c0,0,0.68,4.93,1.21,9.49c1.08,9.24,1.81,19.53,1.98,21.93c0.26-2,0.86-5.02,2.44-8.36
	c1.34-2.83,2.79-4.74,3.37-5.43c4.2-4.94,7.52-11.18,13.68-22.75c2.2-4.13,5.15-10.2,7.99-18c-4.8-5.47-9.18-10.3-12.97-14.43
	c-13.13-14.3-18.54-19.24-26.82-22.07C296.63,245.03,294.16,244.56,292.59,244.32z"/>
<path class="st6" d="M165.82,327.05c-23.9,24.62-41.22,42.49-43.05,44.29c-0.29,0.28-1.21,1.17-1.33,2.45
	c-0.12,1.26,0.58,2.26,0.92,2.74c4.71,6.57,10.45,14.3,10.45,14.3c10.14,18.08,18.12,27.6,23.77,33c1.27,1.21,7.44,7.03,15.93,15.43
	c2.94,2.9,5.33,5.31,6.91,6.9c3.73,1.7,7.47,3.4,11.2,5.1c0.44-1.36,1.45-3.78,3.8-5.82c1.58-1.36,1.36-0.49,5.38-2.9
	c0.59-0.36,1.63-0.99,2.51-0.64c0.47,0.19,0.72,0.59,0.87,0.83c0.72,1.15,0.33,2.47,0.2,2.84c0.89-0.71,2.09-1.52,3.63-2.17
	c1.65-0.7,5.22-2.26,8.55-1.09c0.97,0.34,0.95,0.57,5.16,4.11c0.07,0.06,1.54,1.27,4.48,3.69c5.61,4.62,5.93,4.78,6.69,5.78
	c1.08,1.43,3.6,4.75,2.37,7.16c-0.33,0.63-0.83,1-1.25,1.32c-1.21,0.9-2.8,1.36-5.66,1.29c-3.59-0.09-4.22-0.91-8.3-1.27
	c-1-0.09-2.88-0.25-5.02-0.1c-4.05,0.28-6.81,1.53-8.74,2.25c0,0-5.27,1.99-13.48,2.51c-4.96,0.31-8.77-1.2-22.28-8.87
	c-10.1-5.74-15.15-8.61-22.8-13.61c-5.5-3.6-13.52-8.87-23.56-16.65c-7.05-5.46-15.04-11.68-24.38-20.96
	c-1.65-1.63-9.31-9.32-18.24-20.57c-4.44-5.59-8.01-10.58-10.7-14.52c-0.75-0.8-1.79-2.18-1.97-4c-0.23-2.37,1.12-4.27,1.6-4.95
	c8.3-11.74,15.09-24.44,23.78-35.92c8.71-11.5,7.81-11.37,17.49-23.91c5.3-6.86,9.98-12.59,13.61-16.93
	c0.64,1.35,1.62,3.34,2.88,5.73c3.18,6.02,5.53,10.42,9.43,15.05c0.51,0.6,2.91,3.43,6.28,6.32
	C146.64,318.41,153.96,323.78,165.82,327.05z"/>
<path class="st7" d="M338.57,284.51c15.34,15.06,30.69,30.11,46.03,45.17c11.6,3.45,20.9,6.62,27.01,8.79
	c54.68,19.38,82.02,29.08,87.69,31.68c0.95,0.44,2.66,1.29,4.97,1.24c2.67-0.06,3.76-1.26,7.11-1.85c1.39-0.25,2.65-0.22,5.17-0.15
	c3.4,0.08,2.57,0.39,10.83,1.7c0.92,0.15,2.02,0.31,2.43,1.08c0.53,1.01-0.41,2.52-1.13,3.25c-2.62,2.62-8.24,0.75-8.67,0.6
	c1.88,5.02,3.75,10.05,5.63,15.07c-2.77,0.04-5.88-0.09-9.25-0.52c-6.7-0.85-12.27-2.61-16.49-4.33
	c-37.14,0.92-66.81-1.47-87.66-4.01c-19.98-2.44-32.64-5.12-45.99-12.69c-9.13-5.18-17.12-11.83-28.38-21.2
	c-9.94-8.27-17.84-15.61-23.31-20.89c0.57-0.91,1.45-2.31,2.57-3.98c2.28-3.39,3.49-4.86,4.9-6.91c1.47-2.14,1.81-2.96,4.66-8.17
	c4.93-9.02,5.1-8.73,7.1-12.75C335.07,293.05,336.82,289.28,338.57,284.51z"/>
<path class="st8" d="M508.73,346.68c-0.07-0.17-1.44-3.24-2.15-7.53c-0.66-4.02-0.17-5.64,0-6.16c1.15-3.45,4.11-5.17,4.65-5.47
	c2.27-1.27,4.37-1.32,6.44-1.37c2.18-0.05,5.15-0.13,7.52,1.37c2.64,1.67,3.36,4.54,4.3,8.73c3.04,13.53,3.22,15.91,3.22,15.91
	c0.77,9.84,1.49,18.97,1.97,24.29c0.94,10.43,0.85,20.96,2.51,31.31c0.21,1.33,0.75,4.55,0,4.79c-0.51,0.17-1.85-0.97-6.44-10.26
	c-4.76-9.63-7.01-15.89-11.1-26.35C515.86,366.23,512.97,356.21,508.73,346.68z"/>
<path class="st7" d="M534.36,372.59c1.18,0.03,2.16,3.55,2.42,5.89c0.22,1.95-0.01,3.81-0.47,7.53c-0.15,1.2-0.29,2.18-0.39,2.83
	c-0.96-0.49-2.36-1.32-3.74-2.68c-1.06-1.04-1.8-1.78-2.11-2.91c-0.32-1.18,0.05-2.08,1.33-4.99
	C533.71,372.98,533.96,372.58,534.36,372.59z"/>
<path class="st9" d="M510.85,327.75c-6.19-4.33-11.06-8.55-14.69-12.02c-9.27-8.85-7.12-9.56-13.17-14.96
	c-0.58-0.52-3.15-2.79-4.05-6.35c-0.25-0.99-0.78-3.06,0.34-4.09c1.32-1.22,4.12-0.23,5.07,0.11c3.31,1.18,5.25,3.52,5.97,4.41
	c6.41,7.94,9.79,13.13,9.79,13.13c5.11,7.82,5.54,8.73,7.77,11.62c1.1,1.43,4.62,5.92,4.62,5.92s-0.98-3.77-1.01-3.87
	c-1.43-5.48-4.84-13.56-4.84-13.56c-1.91-4.52-3.56-8.79-6.87-17.33c-7.15-18.46-3.28-11.23-6.64-19.26
	c-1.56-3.72-3.42-7.74-2.14-12.38c0.3-1.08,1.16-4.18,3.6-4.95c2.97-0.94,6.25,2.2,6.87,2.8c2.42,2.33,3.16,4.98,4.28,9.9
	c1.67,7.35,2.65,13.02,2.7,13.34c1.56,9.03,1.62,7.54,2.93,15.39c0.34,2.06,1.59,9.63,2.25,16.46c0.48,4.98,0.72,7.47,0.68,8.07
	c-0.01,0.12-0.11,1.49,0.23,3.23c0.11,0.59,0.23,1.19,0.34,1.18c0.37-0.01,0.58-6.72,0.56-12.81c-0.03-8.82-0.54-11.72,0.11-18.4
	c0,0,0.53-5.41,4.05-10.65c0.71-1.06,1.62-2.2,2.7-2.15c1.65,0.07,2.7,2.86,2.93,3.44c1.33,3.52,0.34,6.68-0.45,9.79
	c-1.39,5.44-0.14,2.69-2.25,12.27c-1.57,7.11-2.66,10.44-3.83,17.76c-0.14,0.85-0.24,1.56-0.31,2.03
	C515.86,326.47,513.35,327.11,510.85,327.75z"/>
<line class="st10" x1="486.76" y1="299.13" x2="510.83" y2="325.64"/>
<line class="st10" x1="499.93" y1="272.9" x2="513.73" y2="324.59"/>
<line class="st11" x1="520.47" y1="287.89" x2="516.75" y2="323.84"/>
<path class="st12" d="M256,206.8c-0.04,4.39-0.08,8.77-0.12,13.16c-1.81-0.13-4.36-0.41-7.36-1.05c-7.25-1.55-12.26-4.19-13.72-4.99
	c-2.22-1.22-4.78-2.57-7.47-5.09c-1.65-1.55-2.78-2.99-3.33-3.74c-1.25-1.68-2.14-3.27-2.77-4.59c1.69,0.5,3.88,1.12,6.47,1.78
	c0.77,0.2,5.08,1.29,9.43,2.14C244.45,205.85,251.43,206.49,256,206.8z"/>
<path class="st13" d="M191.59,189.72c-0.17,0.4-0.5,1.34-0.11,2.28c0.58,1.41,2.55,2.29,4.76,1.86c0,0,2.79,0.6,7.14,2.38
	c2.26,0.92,4.52,1.85,6.78,3.84c0.92,0.81,3.22,2.88,4.48,6.27c1.05,2.83,0.77,5.39,0.64,6.8c-0.05,0.56-0.16,1.53-0.53,3.06
	c-0.75,3.1-1.61,6.85-4.46,10.34c-2.34,2.86-4.99,4.51-6.69,5.39c-0.22-1.48-0.43-2.97-0.65-4.45c-0.31,0.86-0.81,2.07-1.62,3.41
	c-2.27,3.75-5.31,5.8-7.03,6.93c-1.48,0.97-3.72,2.24-6.71,3.21c0.04-1.14,0.07-2.28,0.11-3.41c-0.4-0.91-1.13-2.21-2.49-3.31
	c-1.22-0.99-1.76-0.84-3.03-1.76c-2.43-1.75-3.33-4.35-3.46-4.76c-0.18-0.53-0.44-1.91-0.97-4.66c-0.23-1.17-0.31-1.66-0.43-1.66
	c-0.27,0-0.62,2.33-0.43,4.55c0.15,1.83,0.65,3.31,1.08,4.34c-0.81-0.42-1.68-0.98-2.49-1.76c-3.6-3.45-3.35-8.4-3.25-9.62
	c-0.59-4.46-0.68-11.11,2.49-18c0.57-1.23,1.19-2.37,1.84-3.41c0.34-1.85,0.68-3.71,1.01-5.56c0.09-2.28,0.19-4.57,0.28-6.85
	c-1.56,1.05-4.45,2.65-6.91,1.75c-4.09-1.49-4.6-8.99-3.83-13.6c0.49-2.92,1.91-7.16,16.25-19.87c7.2-6.38,14.32-12.63,25.27-19.19
	c5.62-3.36,10.86-5.9,15.48-8.16c3.13-1.53,7.37-3.4,15.85-7.14c1.97-0.87,15.25-6.66,23.49-6.91c1.15-0.04,2.37,0,3.68,0.32
	c3.96,0.96,6.13,2.77,7.19,3.85c1.34,1.37,2.25,3.27,4.06,7.08c1.26,2.65,1.89,3.98,2.38,5.79c0.58,2.17,0.69,3.82,0.87,7.03
	c0.09,1.66,0.23,4.28,0.11,7.65c-0.24,6.3-1.29,12.04-2.27,16.24c-0.34,0.05-0.81,0.08-1.35-0.01c-4.14-0.66-6.09-7.2-6.5-8.58
	c-1.33-4.46-0.02-5.11-1.24-10.13c-0.2-0.84-1.05-4.13-3.25-7.97c-3.11-5.42-7.04-8.61-8.66-9.83c-1.61-1.21-3.09-2.09-4.19-2.68
	c-0.98,3.11-2.51,7.68-4.64,13.13c-5.61,14.3-8.42,21.46-14.88,28.74c-6.48,7.3-15.24,13.26-16,13.77
	c-0.86,0.58-1.58,1.04-2.06,1.34c0.76-1.4,2.09-3.72,4.05-6.39c4.3-5.87,7.32-7.6,11.03-12.68c1.39-1.9,3.37-4.93,5.11-9.17
	c-2.18,2.84-5.41,6.34-10.02,9.52c-2.3,1.58-6.79,4.62-13.53,6.31c-3.35,0.84-6.27,1.1-8.39,1.16c-0.27,3.29-0.2,6.04-0.06,8.05
	c0.24,3.41,0.36,5.12,1.17,7.17c1.3,3.29,2.48,2.94,3.56,6.26c0.87,2.67,0.86,5.19,0.77,6.53c-0.07,1.12-0.24,2.06-0.39,2.74
	c-1.19-1.81-2.39-3.62-3.58-5.43c-2.06-1.31-4.11-2.62-6.17-3.93c-1.41,0-2.81,0-4.22,0c0.05,0.28,0.16,1.22-0.43,1.76
	c-0.52,0.47-1.32,0.4-2.38,0.31C192.53,189.97,191.97,189.83,191.59,189.72z"/>
<path class="st13" d="M275.43,188.64c3.02,1.15,5.15,2.63,6.48,3.71c2.11,1.71,3.37,3.36,4.29,4.57c1.24,1.64,2.39,3.16,3.21,5.44
	c0.4,1.11,1.29,3.63,0.91,6.62c-0.25,1.94-0.97,3.57-4.04,7.88c-1.69,2.37-4.01,5.44-7.01,8.9c-0.43-0.6-0.97-1.5-1.32-2.68
	c-0.22-0.75-0.3-1.42-0.33-1.97c-0.21,0.81-0.57,1.98-1.24,3.31c-2.06,4.1-5.37,6.36-7.42,7.72c-1.33,0.89-3.31,2.03-5.93,2.99
	c0.13-0.3,1.08-2.52-0.16-4.81c-1.04-1.89-2.88-2.54-3.3-2.68c-1.26-0.71-2.52-1.42-3.77-2.14c0.06-6.23,0.13-12.47,0.19-18.7
	c0.59,0.02,1.45,0.03,2.48-0.02c2.66-0.13,5.45-0.26,7.87-1.44c3.07-1.5,4.52-4.17,5.85-6.64c1.25-2.31,1.89-4.61,2.39-6.38
	C275.01,190.81,275.27,189.54,275.43,188.64z"/>
<path class="st14" d="M174.71,200.99c-5.98,1.19-11.04,1.32-14.69,1.17c-4.02-0.16-7.2-0.32-11.04-1.71
	c-3.51-1.28-8.89-3.24-11.17-8.31c-1.99-4.41-0.15-8.78,2.07-14.11c1.06-2.54,3.02-6.55,12.55-18.07c3.94-4.76,6.03-7.29,9.24-10.68
	c3.38-3.57,9.81-10.01,22.35-19.52c12.63-9.57,22.92-15.83,31.31-20.83c8.48-5.05,12.79-7.48,17.93-9.8
	c10.36-4.67,18.76-6.69,29.05-9.16c2.5-0.6,11.22-2.66,22.75-3.98c7.43-0.85,17.63-1.58,23.67,3.47c0.14,0.12,0.32,0.26,0.54,0.48
	c5.25,5.09,3.81,13.82,3.31,16.88c-1.07,6.52-5.73,12.3-15.04,23.87c-2.71,3.36-6.44,7.7-12,12.26c-1.58,1.3-2.95,2.32-3.93,3.02
	c0.38-4.23,0.22-7.79-0.02-10.39c-0.34-3.57-0.64-6.53-2.16-10.17c-0.63-1.51-1.62-3.83-3.78-6.28c-0.73-0.82-2.31-2.49-4.79-4.02
	c0,0-2.26-1.4-4.76-2.22c-6.83-2.25-18.62,3.3-18.62,3.3c-4.51,1.74-8.34,3.35-11.36,4.67c-3.81,1.66-7.69,3.36-12.74,5.99
	c-1.99,1.04-3.52,1.88-4.18,2.26c-8.85,5.13-17.8,11.19-26.71,18.58c-5.86,4.86-14.84,12.9-19.5,23.88
	c-2.28,5.38-2.33,8.65-0.69,10.81c1.47,1.94,3.96,2.56,5.55,2.78c0.36,1.76,0.73,4.71,0.01,8.25
	C177.16,196.91,175.71,199.49,174.71,200.99z"/>
<path class="st15" d="M161.67,149.29c-1.59-3.87-3.66-9.64-5.07-16.88c-1.9-9.74-3.38-17.34-0.19-25.95c3-8.09,8.6-12.95,11.9-15.82
	c7.52-6.53,15.03-9.02,22.12-11.37c8.08-2.68,17.07-5.66,28.82-4.27c9.3,1.11,16.12,4.49,19.89,6.4c6.92,3.5,11.95,7.56,15.25,10.65
	c-3.79,0.85-9.19,2.27-15.43,4.64c-3.69,1.4-10.02,4.12-24.7,12.84c-6.59,3.92-14.21,8.44-23.77,15.38
	C182.43,130.76,172.39,138.78,161.67,149.29z"/>
<path class="st16" d="M269.69,111.89c5.21-1.05,10.35,0.98,12.74,4.87c2.44,3.98,0.98,8.24,0.73,8.93c-0.85-0.87-2.1-2.24-3.4-4.06
	c-2.01-2.82-2.29-4.13-3.76-5.8C274.9,114.57,273.02,112.99,269.69,111.89z"/>
<path class="st17" d="M331.43,545.35c-2.42-21.92-4.85-43.83-7.27-65.75c-3.36,3.35-7.63,7.93-12.08,13.73
	c-5.1,6.64-11.76,15.39-16.56,28.08c-2.1,5.56-4.57,13.79-5.45,24.22C303.86,545.54,317.65,545.44,331.43,545.35z"/>
</svg>
