<svg width="31" height="30" viewBox="0 0 31 30" fill="none" xmlns="http://www.w3.org/2000/svg">
<rect x="0.5" width="29.678" height="29.678" rx="3.70975" fill="#5BC0BE"/>
<path d="M3.03912 12.525C3.03912 12.1095 3.15783 11.786 3.39525 11.5546C3.63861 11.3231 3.97397 11.2073 4.40134 11.2073H5.98614C6.87055 11.2073 7.5383 11.3795 7.98941 11.7237C8.44051 12.068 8.66606 12.5814 8.66606 13.264C8.66606 13.8991 8.47612 14.3947 8.09625 14.7509C7.7223 15.107 7.21778 15.2851 6.58267 15.2851L7.93598 16.6295C8.04283 16.7363 8.09625 16.858 8.09625 16.9945C8.09625 17.137 8.03392 17.2616 7.90927 17.3685C7.77869 17.4694 7.65108 17.5198 7.52643 17.5198C7.3543 17.5198 7.197 17.4427 7.05455 17.2883L5.13142 15.3207H4.22327V16.9945C4.22327 17.1607 4.16688 17.2913 4.0541 17.3863C3.94133 17.4812 3.79887 17.5287 3.62674 17.5287C3.44867 17.5287 3.30622 17.4812 3.19938 17.3863C3.09254 17.2913 3.03912 17.1607 3.03912 16.9945V12.525ZM5.95053 14.4036C6.34228 14.4036 6.64796 14.3651 6.86758 14.2879C7.08719 14.2107 7.24152 14.092 7.33055 13.9318C7.42552 13.7656 7.47301 13.543 7.47301 13.264C7.47301 12.8604 7.34836 12.5695 7.09907 12.3915C6.85571 12.2134 6.47286 12.1244 5.95053 12.1244H4.60611C4.4874 12.1244 4.39243 12.163 4.32121 12.2401C4.25591 12.3173 4.22327 12.4241 4.22327 12.5606V14.4036H5.95053ZM11.6931 17.5287C11.1826 17.5287 10.7374 17.4367 10.3576 17.2527C9.97769 17.0687 9.68388 16.8105 9.47613 16.4781C9.27432 16.1398 9.17342 15.7451 9.17342 15.294C9.17342 14.5639 9.38413 13.9971 9.80556 13.5934C10.2329 13.1898 10.8324 12.988 11.604 12.988C12.0789 12.988 12.4974 13.0622 12.8594 13.2106C13.2274 13.359 13.5123 13.5667 13.7141 13.8338C13.9219 14.095 14.0258 14.3947 14.0258 14.7331C14.0258 15.018 13.9338 15.2376 13.7498 15.3919C13.5717 15.5462 13.3165 15.6234 12.9841 15.6234H10.3041C10.3041 15.9558 10.4199 16.2081 10.6514 16.3802C10.8888 16.5464 11.236 16.6295 11.6931 16.6295C12.1739 16.6295 12.5834 16.5226 12.9217 16.309C13.1117 16.1903 13.2601 16.1309 13.3669 16.1309C13.4678 16.1309 13.5658 16.1784 13.6607 16.2734C13.7616 16.3743 13.8121 16.4841 13.8121 16.6028C13.8121 16.7452 13.7527 16.858 13.634 16.9411C13.3847 17.131 13.0939 17.2765 12.7615 17.3774C12.4291 17.4783 12.073 17.5287 11.6931 17.5287ZM12.6279 14.8043C12.7288 14.8043 12.8001 14.7865 12.8416 14.7509C12.8832 14.7093 12.9039 14.644 12.9039 14.555C12.9039 14.3473 12.7852 14.184 12.5478 14.0653C12.3163 13.9466 12.0017 13.8872 11.604 13.8872C11.2064 13.8872 10.8918 13.9703 10.6603 14.1365C10.4347 14.3027 10.322 14.5253 10.322 14.8043H12.6279ZM15.5143 17.5287C15.3303 17.5287 15.1878 17.4812 15.0869 17.3863C14.986 17.2913 14.9356 17.1607 14.9356 16.9945V11.2162C14.9356 11.05 14.986 10.9194 15.0869 10.8245C15.1878 10.7295 15.3303 10.682 15.5143 10.682C15.6924 10.682 15.8348 10.7295 15.9417 10.8245C16.0485 10.9194 16.1019 11.05 16.1019 11.2162V16.9945C16.1019 17.1607 16.0485 17.2913 15.9417 17.3863C15.8348 17.4812 15.6924 17.5287 15.5143 17.5287ZM19.3044 19.6655C18.8711 19.6655 18.4764 19.5973 18.1203 19.4608C17.7701 19.3302 17.5 19.1462 17.3101 18.9088C17.2329 18.8079 17.1943 18.704 17.1943 18.5971C17.1943 18.4547 17.2626 18.3241 17.3991 18.2054C17.4881 18.1342 17.5861 18.0985 17.6929 18.0985C17.8532 18.0985 18.0075 18.1787 18.1559 18.3389C18.4111 18.612 18.7851 18.7485 19.2777 18.7485C19.6992 18.7485 20.0167 18.6357 20.2304 18.4102C20.45 18.1906 20.5598 17.8671 20.5598 17.4397V17.0658C20.4174 17.2023 20.2334 17.315 20.0078 17.4041C19.7823 17.4872 19.5686 17.5287 19.3668 17.5287C18.6248 17.5287 18.0461 17.3329 17.6306 16.9411C17.2151 16.5434 17.0074 15.9914 17.0074 15.2851V13.4866C17.0074 13.3441 17.0637 13.2254 17.1765 13.1305C17.2893 13.0355 17.4288 12.988 17.595 12.988C17.7552 12.988 17.8918 13.0385 18.0045 13.1394C18.1173 13.2343 18.1737 13.3501 18.1737 13.4866V15.2851C18.1737 15.7124 18.2776 16.0448 18.4853 16.2823C18.699 16.5197 18.9928 16.6384 19.3668 16.6384C19.7288 16.6384 20.0108 16.5197 20.2126 16.2823C20.4144 16.0448 20.5153 15.7124 20.5153 15.2851V13.5845C20.5153 13.3946 20.5658 13.2492 20.6667 13.1483C20.7735 13.0414 20.9189 12.988 21.1029 12.988C21.2869 12.988 21.4294 13.0414 21.5303 13.1483C21.6312 13.2492 21.6816 13.3946 21.6816 13.5845V17.2883C21.6816 18.0362 21.4709 18.6179 21.0495 19.0334C20.634 19.4548 20.0523 19.6655 19.3044 19.6655ZM23.0832 17.5287C22.8992 17.5287 22.7568 17.4812 22.6559 17.3863C22.555 17.2913 22.5045 17.1607 22.5045 16.9945V11.2162C22.5045 11.05 22.555 10.9194 22.6559 10.8245C22.7568 10.7295 22.8992 10.682 23.0832 10.682C23.2613 10.682 23.4038 10.7295 23.5106 10.8245C23.6174 10.9194 23.6709 11.05 23.6709 11.2162L23.6798 13.6825C23.8875 13.4569 24.1368 13.2848 24.4276 13.1661C24.7185 13.0474 25.0271 12.988 25.3536 12.988C26.0896 12.988 26.6654 13.1898 27.0809 13.5934C27.4963 13.9911 27.7041 14.5461 27.7041 15.2584C27.7041 15.9706 27.4934 16.5286 27.072 16.9322C26.6565 17.3299 26.0748 17.5287 25.3269 17.5287C24.9886 17.5287 24.6918 17.4753 24.4365 17.3685C24.1813 17.2557 23.9261 17.0717 23.6709 16.8165V16.9945C23.6709 17.1607 23.6174 17.2913 23.5106 17.3863C23.4038 17.4812 23.2613 17.5287 23.0832 17.5287ZM25.1488 16.6028C25.5821 16.6028 25.9204 16.4841 26.1638 16.2466C26.4072 16.0092 26.5288 15.6798 26.5288 15.2584C26.5288 14.8369 26.4072 14.5075 26.1638 14.2701C25.9204 14.0327 25.5821 13.914 25.1488 13.914C24.6858 13.914 24.3238 14.0327 24.0626 14.2701C23.8014 14.5075 23.6709 14.8369 23.6709 15.2584C23.6709 15.6798 23.8014 16.0092 24.0626 16.2466C24.3238 16.4841 24.6858 16.6028 25.1488 16.6028Z" fill="white"/>
<path d="M3.08451 18.0738C2.97908 18.1617 2.99665 18.3008 3.01862 18.3594C3.67759 19.4137 5.56655 21.2149 8.40006 21.4565C11.2336 21.6981 13.2104 20.7536 14.2428 20.0287C15.2751 19.3039 15.8462 18.4033 15.8682 18.3374C15.8902 18.2715 15.8902 18.1178 15.7803 18.0738C15.6925 18.0387 15.5827 18.0885 15.5387 18.1178C14.5547 18.891 13.2544 19.3332 12.7272 19.4577C9.60819 20.3362 7.10808 19.7227 6.02787 19.4577L6.02782 19.4577C4.95685 19.1948 3.48519 18.2503 3.34808 18.1178C3.3287 18.099 3.2163 17.964 3.08451 18.0738Z" fill="white"/>
</svg>
