<?xml version="1.0" encoding="utf-8"?>
<!-- Generator: Adobe Illustrator 27.7.0, SVG Export Plug-In . SVG Version: 6.00 Build 0)  -->
<svg version="1.1" id="Layer_1" xmlns="http://www.w3.org/2000/svg" xmlns:xlink="http://www.w3.org/1999/xlink" x="0px" y="0px"
	 viewBox="0 0 595.28 595.89" style="enable-background:new 0 0 595.28 595.89;" xml:space="preserve">
<style type="text/css">
	.st0{fill:#D6EFF4;}
	.st1{fill:#FCFDFD;}
	.st2{fill:#B4E2F9;stroke:#000000;stroke-width:0.25;stroke-miterlimit:10;}
	.st3{fill:#304A6B;}
	.st4{fill:#42618C;}
	.st5{fill:#040204;}
	.st6{fill:#2B222D;}
	.st7{fill:#0E0708;}
	.st8{fill:#40250F;}
	.st9{fill:#FAAA70;}
	.st10{fill:#F89849;}
	.st11{fill:#F8991D;stroke:#F8991D;stroke-width:0.25;stroke-miterlimit:10;}
</style>
<rect class="st0" width="595.28" height="595.28"/>
<path class="st1" d="M432.22,513.29c14.04-0.83,28.07-1.66,42.11-2.49c-1.02-19.42-0.59-35.02,0-45.72c1-18.32,2.72-27.1-2.36-38.24
	c-4.7-10.31-12.51-16.65-16.13-19.53c-8.87-7.05-17.63-9.95-22.83-11.22c-22.08-0.79-44.45-1.4-67.09-1.82
	c-34.22-0.64-67.83-0.83-100.82-0.62c-8.08,13.36-16.16,26.71-24.24,40.07c55.26,1.03,110.51,2.06,165.77,3.09
	c3.24,0.32,9.66,1.43,16.17,6.1c4.81,3.45,7.77,7.47,9.42,10.12C432.22,473.12,432.22,493.21,432.22,513.29z"/>
<path class="st2" d="M232.72,472.26c52.85,0.13,105.71,0.26,158.56,0.39c0.99-0.11,3.09-0.17,4.66,1.27
	c1.46,1.34,1.79,3.35,1.94,4.66c0.91,7.61,0.41,27.02,0.39,27.94c0,1.98,0,3.95,0,5.93c11.01,0.28,22.02,0.56,33.03,0.85
	c-0.33-26.41-0.12-44.22,0.78-53.35c0.12-1.24,0.46-4.44-0.78-8.04c-0.65-1.88-2.91-7.33-12.82-12.28
	c-9.51-4.75-18.12-5.06-19.04-5.08c-13.44-0.34-73.96-1.55-157.1-2.31C239.13,445.57,235.93,458.92,232.72,472.26z"/>
<path class="st3" d="M102.48,498.12c-13.64-0.24-27.28-0.48-40.92-0.72c4.37-30.06,5.73-54.17,6.14-70.98
	c0.32-13.2,0.14-25.54,4.09-42.73c2.62-11.39,5.81-24.74,15-38.39c3.16-4.7,8.7-11.1,19.78-23.9c1.78-2.06,4.69-5.4,8.86-9.42
	c5.57-5.37,10.11-8.8,10.91-9.42c13.59-10.5,34.1-48.53,34.1-48.53c12.21-17.27,29.51-38.39,53.19-59.39
	c23.24-20.61,45.83-35.08,64.17-45.09c-2.73,11.64-6.87,25.06-12.57,40.43c0,0,0,0,0,0c-0.05,0.1-9.55,21.3-28.88,46.85
	c0,0-0.02,0.02-0.02,0.02c-0.22,0.29-2.66,3.56-5.16,6.8c-10.26,13.31-21.64,26.32-21.64,26.32c-12,13.72-33.55,41.01-47.73,60.84
	c-10.66,14.9-25.51,37.36-40.92,67.36C114.76,431.48,108.62,464.8,102.48,498.12z"/>
<path class="st4" d="M107.47,498.07c44.56,0.01,88.93,0.41,133.08,1.21c0.1-12.27,0.21-24.54,0.31-36.8
	c8.21-12.49,16.43-24.98,24.64-37.47c-15.35-26.59-30.7-53.18-46.05-79.77c0.05-5.92,0.37-14.71,1.69-25.28
	c0.58-4.65,1.22-8.59,7.44-37.45c1.63-7.58,3.09-14.29,7.3-33.57c0.18-0.83,3.58-16.41,3.76-17.24c-5.66,7.22-14.6,18.56-25.75,32.4
	c-18.51,22.98-22,26.65-33.36,41.17c-11.02,14.1-21.36,27.32-33.36,45.31c-8.27,12.41-17.88,27.92-27.76,46.4
	c-6.08,33.69-12.15,67.39-18.23,101.08C103.11,498.07,105.55,498.07,107.47,498.07z"/>
<path class="st3" d="M277.81,149.54c27,0.14,54.01,0.29,81.01,0.43c-0.64,7.88-1.28,15.75-1.91,23.62
	c-11.42,0.09-22.85,0.18-34.27,0.27c1.63,9.59,3.02,24.04,0.26,41c-2.03,12.46-5.5,21.39-8.17,28.15c-9.15,23.14-18.71,47-29,72.16
	c12.48,16.28,16.85,26.52,18.43,33.01c1.79,7.36,4.27,14.53,6.29,21.83c0.16,0.56,0.62,2.24,1.54,4.35c1.39,3.17,2.93,5.28,3.37,5.9
	c2.27,3.19,9.5,14.98,21.78,35.49c-15.13,14.91-30.25,29.81-45.38,44.72c-9.45-12.77-18.91-25.54-28.36-38.32
	c-4.73-7.41-43.86-68.66-45.96-72.82c-0.52-1.03-0.96-2.06-0.96-2.06c-0.62-1.45-1.36-3.44-1.94-5.86
	c-2.01-8.5-0.39-15.66,0.26-18.59c2.53-11.3,9.35-43.08,19.25-85.82c6.42-8.3,13.11-18.02,19.51-29.25
	C265.76,186.37,273.17,166.11,277.81,149.54z"/>
<path class="st4" d="M351.83,166.44c5.21,31.79,18.13,46.74,27.1,54.02c0.69,0.56,1.38,1.1,2.08,1.61c3.2-2.59,6.4-5.17,9.6-7.76
	c5,3.77,10.01,7.54,15.01,11.32c3.29,2.24,6.39,2.71,7.63,1.4c0.58-0.62,0.58-1.53,0.61-1.53c0.18,0.02-0.19,2.69-0.19,2.69
	c-0.77,5.46-2.49,24.09-2.76,25.91c-1.53,10.61-40.54,58.6-102,115.7c-11.08-17.1-22.16-34.19-33.24-51.29
	c13.04-24.42,27.4-58.01,35.51-99.76c3.63-18.68,5.43-36.02,6.15-51.53C328.83,166.97,340.33,166.7,351.83,166.44z"/>
<path class="st3" d="M462.1,388.33c-10.52-10.97-21.04-21.95-31.55-32.92c-2.75-6.35-6.38-15.74-9.38-27.51
	c-1.55-6.09-4.21-17.84-6.26-49.29c-0.79-12.1-1.55-28.02-1.67-46.85c-2.62,5.01-6.44,12.24-11.15,20.88
	c-9.99,18.31-16.18,32.47-23.97,41.85c-10.05,12.1-23,26.83-38.95,43.07c9.63,14.49,21.42,30.42,35.73,46.79
	c14.3,16.36,28.34,29.99,41.16,41.21c3.08-2.74,6.17-5.48,9.25-8.22c0.03-0.73,0.11-1.77,0.29-3.02c0,0,0.32-2.18,0.96-4.32
	c1.01-3.39,11.17-22.04,28.6-22.46C456.89,387.48,459.27,387.6,462.1,388.33z"/>
<path class="st5" d="M374.46,97.25c5.18-19.46,29.1-31.8,49.2-32.49c12.85-0.44,23.51,3.91,30.82,8.12
	c-11.65,16.34-23.31,32.68-34.96,49.01c-15.28-6.91-30.56-13.82-45.83-20.73C373.81,100.21,374.04,98.85,374.46,97.25z"/>
<path class="st6" d="M419.52,121.9c20.58,14.29,41.16,28.57,61.75,42.86c7.08-10.36,14.16-20.72,21.23-31.08
	c1.42-4.1,3.12-11.16,0.63-18.28c-0.9-2.57-2.21-4.77-3.91-6.86c-9.35-11.49-41.64-33.55-44.75-35.66
	C442.82,89.22,431.17,105.56,419.52,121.9z"/>
<path class="st7" d="M419.52,121.9c2.38,12.61,4.75,25.23,7.13,37.85c20.89,14.18,41.78,28.35,62.68,42.53
	c1.27,0.28,3.63,0.6,4.64-0.74c1.25-1.67-0.27-4.98-0.86-6.31c-2.61-5.85-6.57-16.16-11.84-30.46
	C460.68,150.47,440.1,136.19,419.52,121.9z"/>
<path class="st8" d="M358.27,167.23c5.84-4.3,11.68-8.59,17.52-12.89c-0.49-4.88-0.23-8.93,0.13-11.81c0.45-3.6,0.79-6.22,2.27-9.26
	c0.96-1.99,3.16-6.5,7.81-8.19c0.13-0.05,0.22-0.08,0.3-0.11c0.55-0.15,1.84-0.28,5.5,3.26c1.95,1.89,2.94,2.87,3.65,4.64
	c0.18,0.44,0.56,1.4,0.68,2.63c0.44,4.32-2.68,7.92-2.44,8.11c0.2,0.16,2.17-2.43,3.02-3.5c1.7-2.16,5.14-6.53,10.08-9.53
	c4.79-2.9,9.1-3.39,10.21-3.49c1.58-0.15,2.91-0.1,3.87-0.02c-0.45-1.73-0.9-3.46-1.36-5.19c-15.18-7.01-30.36-14.02-45.54-21.03
	c-3.82,6.29-8.2,14.94-11.42,25.83C357.64,143.33,357.58,157.9,358.27,167.23z"/>
<path class="st9" d="M464.46,184.79c-10.64,11.33-18.67,20.18-23.89,26.02c-3.57,3.98-7.88,8.85-14.87,13.73
	c-6.54,4.56-13.32,9.15-20.13,7.18c-1.64-0.47-4.4-2.34-9.92-6.06c-3.64-2.46-6.58-4.59-8.56-6.06c-0.74,1.38-4.13,7.42-8.17,7.04
	c-2-0.19-3.29-1.86-5.05-4.16c-11.22-14.61-11.06-14.31-11.57-15.16c-3.43-5.75-5.53-9.25-7.36-14.68
	c-1.55-4.59-4.13-11.37-3.76-20.27c0.1-2.5,0.41-4.54,0.65-5.9c2.03-2.46,4.07-4.92,6.1-7.38c0.09,2.34,0.17,4.68,0.26,7.03
	c5.33-3.91,10.66-7.82,15.99-11.73c-0.71-4.24-0.96-9.89,0.76-16c1.01-3.62,2.37-8.47,6.66-11.64c1.2-0.89,4.89-3.63,8.69-2.25
	c2.79,1.01,4.13,3.69,4.76,4.95c1.73,3.45,1.61,7.35,0.6,10.21c-0.74,2.1-1.89,3.45-1.8,3.51c0.14,0.11,2.63-4.54,7.02-8.66
	c1.49-1.4,4.49-4.16,9.18-5.94c4.18-1.59,7.91-1.71,10.36-1.56c2.08,10.93,4.16,21.85,6.24,32.78
	C439.25,168.09,451.86,176.44,464.46,184.79z"/>
<path class="st10" d="M327.01,425.41c7.93,5.9,11.43,8.88,13.12,10.53c0.5,0.48,2.35,2.31,5.08,4.12c3.31,2.21,5.8,3.02,7.2,3.66
	c4.9,2.27,7.32,7.55,10.16,13.74c4.57,9.97,7.28,23.47,4.23,25.18c-0.86,0.48-1.95-0.09-3.34-0.81c-2.42-1.26-3.09-3.18-5.96-8.1
	c-3.37-5.78-5.02-7.69-6.08-8.81c-1.19-1.26-2.91-2.87-3.02-2.76c-0.08,0.09,0.78,1.2,1.41,1.93c0.7,0.81,1.08,1.13,1.62,1.7
	c0.93,0.98,1.5,1.82,2.19,2.84c0.82,1.21,0.96,1.62,2.4,4.21c1.62,2.9,1.49,2.48,2.1,3.69c1.23,2.43,1.92,4.47,2.19,5.3
	c0.41,1.27,0.3,1.18,1.18,4.45c1.07,3.95,1.08,3.56,1.22,4.45c0.51,3.25-0.14,5.82-0.44,6.98c-0.54,2.06-0.81,3.09-1.45,3.37
	c-1.94,0.85-6.38-4.21-8.9-9.74c-2.59-5.7-2.1-9.64-5.45-14.07c-0.63-0.84-0.87-0.99-2.78-3.37c-0.69-0.87-2.26-2.84-4.34-4.45
	c-0.93-0.72-1.16-0.75-1.23-0.69c-0.12,0.13,0.28,0.75,0.38,0.91c0.44,0.69,0.91,1.08,0.93,1.1c0.72,0.6,1.97,2,4.48,4.8
	c1.4,1.57,2.34,2.62,3.21,4.25c1.11,2.09,0.75,2.59,2.07,6.49c0.58,1.71,1.25,3.7,2.49,6.13c0.86,1.67,1.58,3.42,2.54,5.03
	c0.67,1.14,1.19,1.88,1.01,2.79c-0.28,1.46-2.08,2.11-2.2,2.15c-2.3,0.8-4.65-1.03-5.33-1.55c-2.65-2.06-2.81-4.18-5.79-10.56
	c0,0-2.2-4.71-5.26-9.63c-0.74-1.19-2.22-3.48-4.51-6.03c-0.47-0.52-0.74-0.95-0.82-0.89c-0.12,0.08,0.36,1.15,0.82,2.12
	c0.52,0.48,1.25,1.23,2,2.25c0.69,0.94,1.08,1.67,1.69,2.76c0.76,1.37,1.58,2.71,2.35,4.07c2.98,5.25,2.83,4.85,3.38,5.94
	c0.77,1.54,0,0.19,2.16,5.6c0.4,1.01,0.74,1.84,0.43,2.67c-0.41,1.1-1.71,1.48-2.43,1.7c-0.41,0.12-2.42,0.71-4.36-0.21
	c-2.6-1.24-2.47-3.98-5.32-8.4c-0.7-1.08-1.86-2.38-4.17-4.98c-4.81-5.4-5.23-5.06-8.13-8.48c-4.2-4.97-6.3-7.45-7.07-10.59
	c-0.41-1.7-0.7-4.13-2.6-5.9c-0.6-0.56-0.76-0.49-2.85-1.61c-4.99-2.67-5.9-3.71-6.32-4.29c-0.47-0.65-1.09-1.74-1.44-3.42
	C308.66,443.78,317.84,434.6,327.01,425.41z"/>
<path class="st11" d="M378.37,436.18"/>
<path class="st10" d="M436.48,420c-0.03-1.72-0.1-4.73,1.54-6.19c1.85-1.65,5.44-1.47,7.03,0.63c1.34,1.78,0.78,4.3,0.35,6.19
	c-0.43,1.9-1,2.68-3.66,7.39c-1.25,2.22-2.44,4.49-3.66,6.73c-1.85,3.4-2.79,5.14-2.99,6.99c-0.17,1.57-0.17,4.72,1.16,5.34
	c1.57,0.74,4.21-2.42,5.48-3.94c1.71-2.05,2.71-4.02,4.1-6.76c1.29-2.54,1.13-2.62,2.43-5.06c1.6-3,2.42-4.53,3.8-5.6
	c1.09-0.85,1.79-0.95,2.8-2.11c0.31-0.36,0.79-0.97,1.64-1.38c0.6-0.28,1.25-0.4,1.28-0.3c0.04,0.1-0.6,0.36-1.5,0.96
	c-1.21,0.8-1.31,1.43-2.59,2.36c-0.48,0.35-0.62,0.36-0.91,0.52c0,0-0.22,0.12-0.48,0.3c-0.49,0.35-1.2,1.46-1.69,2.15
	c-0.75,1.06-0.99,1.16-1.43,2.03c-0.19,0.39-0.1,0.28-0.42,0.97c-0.35,0.77-0.57,1.11-1.23,2.39c-0.23,0.44-0.34,0.66-0.47,0.91
	c-0.59,1.18-0.94,2.07-1.13,2.54c-0.18,0.44-0.86,2.05-1.73,3.49c-0.98,1.62-2.03,2.76-2.63,3.4c-1.22,1.3-1.98,1.8-2.57,3.18
	c-0.29,0.67-0.55,1.27-0.37,1.87c0.39,1.27,2.59,1.82,4.19,1.68c3.07-0.27,5.17-3.23,8.86-8.55c1.25-1.8,2.39-3.45,3.72-5.88
	c0.42-0.77,2.66-4.9,4.38-7.32c0.26-0.37,0.94-1.03,2.29-2.37c0.34-0.34,0.81-0.79,1.01-0.66c0.14,0.09,0.12,0.42,0.05,0.65
	c-0.14,0.48-0.56,0.73-0.71,0.83c-0.63,0.39-1.16,0.97-2.24,2.12c-0.51,0.55-0.77,1.01-1.36,2.06c-1.69,3.04-2.12,3.93-2.84,5.19
	c-1.1,1.93-2.11,3.36-3.16,4.84c-1.49,2.09-1.63,2.06-2.51,3.48c-1.1,1.77-1.15,2.25-2.02,3.07c-1.08,1.01-1.74,0.95-2.18,1.89
	c-0.59,1.26-0.01,2.68,0.05,2.83c0.79,1.85,2.82,2.25,3.38,2.36c0.88,0.17,2.3,0.16,4.58-1.24c2.83-1.74,4.45-4.19,7.58-9.02
	c0.95-1.47,2.16-3.35,3.54-5.96c1.61-3.02,2.41-4.54,2.78-5.48c0.17-0.44,0.83-2.15,2.13-4.07c1.08-1.6,1.37-1.5,1.42-1.47
	c0.31,0.17,0,1.83,0,1.83c-0.11,0.81-0.26,2.04-0.38,3.54c-0.32,3.9,0.28,4.65-0.44,5.9c-1.04,1.82-2.82,1.38-3.53,3.31
	c-0.34,0.94-0.38,2.28,0.26,2.88c0.84,0.8,2.5-0.02,3.54-0.47c2.27-0.97,3.65-2.7,5.07-4.48c0.63-0.79,1.55-2.04,2.45-3.72
	c0.29-0.54,1.17-2.21,1.91-4.48c1.08-3.34,1.35-6.39,1.47-9.38c0.32-7.87,0.37-11.8-0.49-15.22c-0.51-2-2.85-11.26-10.39-16
	c-3.47-2.18-7.52-3.07-8.98-3.35c-1.95-0.37-3.07-0.36-6.95-0.81c-3.14-0.36-5.67-0.75-7.28-1.02c-3.59,1.63-7.98,4.17-12.32,8.14
	c-2.44,2.23-6.24,5.78-9.22,11.74c-0.41,0.82-0.72,1.52-0.93,2.01c1.55,2.02,3.09,4.05,4.63,6.07c-0.33,1.5-0.58,3.36-0.55,5.49
	c0.03,1.74,0.24,2.98,0.49,4.42c0.52,3.04,0.78,4.56,1.64,5.13c1.27,0.86,3.34,0.53,4.36-0.71c0.29-0.36,0.63-0.94,0.78-2.92
	C436.98,423.11,436.51,422.05,436.48,420z"/>
</svg>
