<?xml version="1.0" encoding="utf-8"?>
<!-- Generator: Adobe Illustrator 27.7.0, SVG Export Plug-In . SVG Version: 6.00 Build 0)  -->
<svg version="1.1" id="Layer_1" xmlns="http://www.w3.org/2000/svg" xmlns:xlink="http://www.w3.org/1999/xlink" x="0px" y="0px"
	 viewBox="0 0 595.28 595.89" style="enable-background:new 0 0 595.28 595.89;" xml:space="preserve">
<style type="text/css">
	.st0{fill:#D6EFF4;}
	.st1{fill:#FACFB3;}
	.st2{fill:#F5A980;}
	.st3{fill:#F4A97E;}
	.st4{fill:#F69F73;}
	.st5{fill:#FFFFFF;}
	.st6{fill:#F9A57E;}
	.st7{fill:#E5E9EB;}
	.st8{fill:#E5E9EA;}
	.st9{fill:#FCFFFF;stroke:#CFD1D1;stroke-width:2;stroke-miterlimit:10;}
	.st10{fill:#E6E7EA;}
	.st11{fill:#CFD1D1;}
	.st12{fill:#ADB1A8;}
	.st13{fill:#FACFB3;stroke:#593D00;stroke-width:0.2;stroke-miterlimit:10;}
	.st14{fill:#F6A980;stroke:#593D00;stroke-width:0.2;stroke-miterlimit:10;}
	.st15{fill:#FBCFB4;stroke:#593D00;stroke-width:0.2;stroke-miterlimit:10;}
</style>
<rect y="0" class="st0" width="595.28" height="595.28"/>
<path class="st1" d="M134.25,553.7c4.38-36.75,6.75-59.32,7.08-67.8c0.05-1.2,0.16-4.88,1.39-9.6c0.46-1.76,2.08-7.47,6.44-14.08
	c2.2-3.34,7.49-11.18,16.98-16.54c5.65-3.19,10.21-4.05,22.17-6.06c28.79-4.84,34.94-5.32,46.48-8.52
	c17.84-4.94,22.63-9.19,25.03-12.94c2.22-3.47,4.14-9.41,5.36-13.1c0,0,0.7-2.1,1.25-7.79c0.05-0.5,0.13-1.54-0.31-2.7
	c-0.28-0.74-0.67-1.22-0.77-1.36c-1.4-1.81-3.48-6.54-4.85-8.93c-2.44-4.25-4.32-3.88-11.58-11.23c-2.33-2.36-4.12-4.36-5.23-5.64
	c0.41-1.6,0.74-3.92,0-6.48c-0.69-2.42-1.75-3.01-3.3-5.99c-1.34-2.59-1.81-4.59-2.71-8.39c-0.35-1.5-0.28-1.6-0.63-3.01
	c-0.75-3.06-1.6-5-2.11-6.32c-2.42-6.34-0.68-8.4-3.18-13.13c-1.1-2.09-2.42-3.55-3.32-4.42c-0.67-3.79-0.38-6.73,0-8.71
	c0.98-5.02,3.17-6.87,2.5-11.07c-0.21-1.3-0.37-1.42-1.23-4.85c-1-4.01-1.07-4.46-1.58-5.98c-1.39-4.16-2.99-7.43-4.12-9.54
	c0.55-1.71,1.43-4.12,2.79-6.9c1.22-2.51,4.9-9.6,16.31-20.14c6.67-6.16,13.61-12.57,24.86-17.94c7.33-3.5,13.92-5.33,18.69-6.35
	c2.38-0.42,5.67-0.85,9.6-0.85c1.71,0,8.39,0.07,17.03,2.65c2.02,0.6,3.87,1.26,5.59,1.96c4.02,1.63,6.27,2.99,12.47,6.55
	c9.63,5.54,9.32,5.17,10.55,6.14c4.26,3.36,4.89,5.32,8.85,9.27c2.52,2.51,6.5,5.92,12.43,9.11c9.17,2.86,11.68,6.41,12.33,9.05
	c1.35,5.43-4.91,7.94-6.81,18.73c-1.33,7.52,1.27,8.82-1.11,14.92c-1.69,4.33-4,6.27-4.28,11.06c-0.19,3.23-0.29,4.85,0.28,6.91
	c0.4,1.48,0.96,2.57,0.69,4.15c-0.31,1.81-1.48,2.95-1.93,3.45c-2.93,3.25-2.17,8.96-2.35,13.54c-0.15,3.79-1.05,9.24-4.56,16.03
	c0.2,0.3,0.99,1.53,0.69,3.04c-0.33,1.69-1.87,3.04-3.85,3.31c-0.92,1.52-2.27,3.69-4.03,6.23c-0.94,1.36-1.8,2.6-2.49,3.45
	c-4.62,5.76-9.6,4.25-12.89,9.17c-2.05,3.06-2.56,7.3-1.62,7.83c0.38,0.22,1.02-0.17,1.52-0.55c-0.33,0.53-0.66,1.13-0.97,1.8
	c-0.74,1.59-1.13,3.08-1.35,4.31c-0.01,0.65,0.01,1.58,0.13,2.68c0.4,3.83,1.67,6.6,2.6,8.61c0.52,1.12,2.26,4.7,5.72,8.73
	c1.59,1.85,2.94,3.42,5.21,5.06c1.02,0.74,2.56,1.73,9.34,4.36c4.45,1.73,6.67,2.6,9.85,3.55c3.87,1.16,6.32,1.61,11.94,2.73
	c12.4,2.48,10.23,2.24,16.33,3.38c10.1,1.87,20.52,3.37,20.52,3.38c7.97,1.15,9.54,1.18,12.9,2.39c5.55,1.99,9.34,4.79,11.88,6.69
	c2.9,2.17,6.46,4.85,9.53,9.37c2.86,4.22,3.81,7.88,5.02,12.51c0.71,2.71,1.23,5.45,2.22,15.77c0.67,6.96,1.03,11.93,1.27,15.01
	c1.09,13.77,1.63,20.65,2.48,28.8c0.35,3.38,0.89,8.3,1.02,15.07c0.06,3.2,0.01,5.85-0.04,7.63
	C350.32,554.69,242.29,554.2,134.25,553.7z"/>
<path class="st2" d="M224.18,279.04c-1.35-1.76-2.71-3.53-4.06-5.29c0.11-2.8,0.21-5.6,0.32-8.4c6.9-12.54,14.63-21.2,20.24-26.66
	c5.93-5.76,11.23-9.59,21.83-17.24c11.63-8.4,18.81-12.42,21.83-14.05c5.43-2.95,10.17-5.14,13.69-6.67
	c2.86,3.01,7.48,7.7,13.63,13.1c4.12,3.62,5.24,4.32,14.38,11.8c11.72,9.6,10.83,9.22,17.15,14.2c8.61,6.78,10.35,7.55,16.7,12.9
	c5.16,4.35,9.15,8.17,11.76,10.77c2.03,1.95,4.06,3.9,6.1,5.85c-1.93,2.52-3.4,4.77-4.46,6.53c-0.83,1.37-3.49,5.9-5.86,12.34
	c-0.58,1.58-1.02,2.92-1.31,3.89c0.65-3.68,0.96-8.57-0.22-14.1c-0.38-1.8-1.17-4.82-2.84-8.33c-2.08-4.35-4.45-7.23-6.65-9.85
	c-3.18-3.8-5.95-6.24-8.92-8.85c-5.41-4.76-10.08-7.97-12.2-9.37c-2.6-1.72-6.39-4.22-11.81-6.85c-4.16-2.02-8.62-4.18-15.04-5.65
	c-2.7-0.62-7.11-1.59-12.9-1.44c-1.34,0.03-6.4,0.23-13.95,2.51c-8.32,2.52-13.93,5.86-20.29,9.69c-8.4,5.07-14.4,9.96-17.8,12.91
	c-5.77,5.02-10.07,8.81-14.02,15.04C226.67,272.24,225.08,276.26,224.18,279.04z"/>
<path class="st3" d="M269.88,395.77c-0.17,2.08-0.34,4.15-0.51,6.23c2.57,1.36,6.49,3.13,11.57,4.32c7.06,1.66,12.64,1.32,16.9,1.07
	c7.41-0.44,11.12-0.67,13.45-2.56c0.7-0.57,2.14-1.92,4.21-2c0.14-0.01,2.21-0.05,3.71,1.3c1.12,1.02,1.25,2.21,1.62,3.95
	c0.46,2.16,1.32,4.24,1.93,6.37c1.04,3.65,2.41,6.28,3.71,8.79c2.01,3.88,3.49,6.74,6.5,9.81c1.24,1.27,5.04,5.07,11.12,7.35
	c4.03,1.51,10.81,3,12.23,2.79c0.1-0.01,0.57-0.1,0.95,0.14c0.41,0.25,0.62,0.8,0.53,1.17c-0.22,0.87-2.22,1.14-3.09,1.24
	c-5.86,0.71-20.96,1.25-21.89,1.29c-6.32,0.24-9.8,0.36-13.83,2.23c-4.75,2.2-7.66,5.61-9.31,8c-0.18,0.23-0.38,0.55-0.25,0.74
	c0.21,0.3,1.19,0.06,1.58-0.05c4.23-1.1,6.35-1.64,9.04-3.56c4.71-3.36,15.39-2.79,22.57-2.7c9.62,0.12,20.07-1.05,40.97-3.41
	c7.02-0.79,17.16-2.16,29.44-4.63c-7.7-1.16-18.11-2.83-30.42-5.12c-25.02-4.64-30.09-6.65-35.12-9.99
	c-2.99-1.99-14.54-9.66-17.29-22.82c-0.59-2.83-0.64-5.27-0.57-6.99c-0.27-0.2-0.57-0.47-0.83-0.83c-0.89-1.24-0.61-2.63-0.52-3.03
	c-2.1,0.75-5.05,1.74-8.64,2.78c-4.28,1.24-7.41,2.14-11.53,2.81c-2,0.33-7.47,1.12-14.6,0.79c-2.76-0.13-7.66-0.38-13.8-1.99
	C275.62,398.2,272.29,396.88,269.88,395.77z"/>
<path class="st4" d="M202.17,444.83c2.89,0.85,6.68,1.84,11.2,2.71c2.14,0.41,7.6,1.4,15.52,1.98c5.63,0.41,6.1,0.14,17.84,0.37
	c0,0,8.22,0.16,19.28,0.73c10.9,0.57,13.02,0.95,15.6,1.91c6.63,2.45,10.72,5.42,10.72,5.42c2.3,1.67,3.94,3.28,4.48,2.93
	c0.6-0.39-0.52-2.98-1.92-4.91c-2.32-3.18-5.55-4.7-6.72-5.2c-4.05-1.74-7.07-1.39-13.92-1.39c-5.09,0-10.16-0.46-15.24-0.57
	c-9-0.2-13.5-0.3-18.84-0.38C231.99,448.3,219.75,447.57,202.17,444.83z"/>
<path class="st5" d="M190.14,555.01c1.34-4.36,2.56-9.33,3.42-14.84c0.59-3.79,0.94-7.35,1.11-10.66c-0.67-1.23-1.71-3.12-3.03-5.42
	c-3.26-5.67-3.85-6.22-4.25-7.78c-0.91-3.62,0.35-8.33,3.34-10.98c3.69-3.26,8.98-2.46,19.72-1.53c8.17,0.71,16.41,0.73,24.57,1.53
	c0,0,14.45,1.41,35.19,1.95c20.43,0.53,36.35-0.92,49.15-2.08c24.76-2.25,37.14-3.38,40.35-4.03c2.02-0.41,9.08-0.65,23.21-1.11
	c0,0,3.25-0.11,6.98,1.25c1.51,0.55,3.06,1.14,3.6,2.43c0.18,0.42,0.22,0.85,0.61,1.04c0.76,0.37,1.97-0.59,2.71-1.04
	c2.88-1.78,7.33-1.32,10.05-0.08c0.75,0.34,3.66,1.67,4.46,4.32c0.83,2.74-1.06,5.3-3.93,9.21c-1.85,2.51-3.66,4.36-4.9,5.52
	c0.97,7.51,1.91,12.93,2.62,16.57c0.21,1.07,1.12,5.69,2.71,13.85c0.04,0.19,0.31,1.62,0.35,1.8
	C335.5,554.97,262.82,554.99,190.14,555.01z"/>
<path class="st6" d="M189.36,554.97c-3.7,0-7.4,0-11.1,0c1.74-3.01,4.25-7.93,5.94-14.32c2.46-9.3,0.8-12.8,0.31-35.5
	c-0.25-11.55,0.09-14.69-0.94-22.48c-0.87-6.62-2.14-12.04-3.13-15.75c2.54,2.55,6.23,6.78,9.07,12.74
	c2.75,5.79,2.52,8.62,5.23,11.93c4.17,5.09,11.19,6.29,18.01,7.25c25.92,3.64,49.83,3.79,64.76,3.97c6.02,0.07,10.83,0.15,13.45,0.2
	c3.47-3.05,6.94-6.09,10.41-9.14c-0.31,0.31-1.74,1.79-1.63,3.97c0.16,3.07,3.21,4.6,3.36,4.67c21.01-2.17,37.42-3.91,50.33-5.37
	c24.01-2.71,25.1-3.23,30.05-2.68c2.02,0.22,5.46,0.71,9.55-0.5c5.48-1.62,8.47-5.2,12.8-10.13c3.26-3.71,8.26-9.31,14.97-16.39
	c0.52-0.25,1.12-0.48,1.3-0.3c0.32,0.32-0.92,1.78-1.08,1.99c-4.72,5.79-4.99,25.63-4.99,25.63c-0.2,14.83-0.3,22.24,0.54,28.32
	c1.71,12.38,5.17,23.12,9,31.94c-5.8-0.03-11.59-0.05-17.39-0.08c-1.18-6.74-2.29-13.62-3.33-20.64c-0.58-3.91-1.12-7.79-1.63-11.62
	c1.03-1.16,2.51-2.94,4.01-5.28c2.44-3.8,3.66-5.7,3.48-8.24c-0.17-2.31-1.54-5.83-4.45-6.86c-3.78-1.33-6.85,2.73-11.82,1.59
	c-1.91-0.44-1.93-1.65-4.55-2.6c-2.56-0.92-4.8-0.82-5.87-0.78c-10.15,0.38-12.81-1.47-28.09,0c-9.56,0.92-7.82,1.57-20.91,3.24
	c-7.93,1.01-13.76,1.43-24.11,2.17c-10.26,0.74-15.49,1.11-22.78,1.32c-12.51,0.35-22-0.05-31.25-0.47
	c-14.42-0.65-21.63-0.97-27.79-1.92c-8.82-1.36-17.91-1.07-26.66-2.76c-1.43-0.27-4.96-0.98-8.4,0.55c-4.25,1.9-5.84,6.09-6.11,6.82
	c-1.17,3.1-0.7,5.76-0.43,7.21c0.9,4.72,3.92,7.87,5.09,9.06c0.48,0.49,0.91,0.88,1.21,1.13c-0.48,4.21-1.06,8.54-1.75,12.99
	C191.23,545.1,190.33,550.13,189.36,554.97z"/>
<path class="st7" d="M190.14,555.01c9.61,0.18,14.16,0.21,14.37,0.12l0,0c0.17-0.08,0.38,0.01,0.4,0c0.27-0.07-3.03-17.96-7.42-29.7
	c-0.4-1.06-1.48-3.89,0-5.73c0.67-0.83,1.62-1.14,1.95-1.25c4.49-1.49,14.19,3.82,16.6,5.01c5.29,2.61,13.95,4.39,28.52,0.18
	c-10.03-2.03-20.05-4.06-30.08-6.08c-10.82,1.22-18.52-2.34-19.34-6.44c-0.6-3,2.57-5.94,3.52-6.8c1.91-0.1,4.84-0.19,8.4,0
	c10.14,0.54,17.53,2.91,19.73,3.58c5.5,1.66,19.76,2.56,48.05,4.29c25.73,1.58,38.72,2.36,45.12,1.97
	c13.49-0.82,27.66-3.01,35.94-4.29c8.49-1.31,15.54-2.61,20.51-3.58c0.47-0.18,1.34-0.46,1.69-0.13c0.51,0.48-0.37,1.96-0.67,2.47
	c-2.7,4.54-15.38,9.09-21.45,11.45c-5.79,2.25-4.21,1.98-10.66,4.55c-16.62,6.61-35.75,11.84-45.04,14.26
	c11.18-1.79,20.55-3.62,27.64-5.11c10.97-2.31,17.38-3.67,24.94-6.17c10.94-3.62,16.56-5.48,18.2-6.9c0.21-0.18,1.21-1.09,1.96-0.84
	c0,0,0.55,0.18,0.8,1.18c0.52,2.12-12.6,23.17-19.61,34.24c10.72-0.14,21.44-0.28,32.16-0.41c-3.04-25.95-3.21-37.81-2.19-42.73
	c0.2-0.96,1-4.3-0.96-6.89c-1.74-2.31-4.85-2.94-6.7-3.26c-13.15-2.23-21.47-0.16-21.47-0.16c-3.44,0.86-19.43,2.42-51.41,5.55
	c-13.61,1.33-28.76,0.51-59.06-1.14c-19.92-1.09-36.46-2.56-48.14-3.74c-1.13,0.24-3.56,0.91-5.71,2.86c-2.44,2.21-3.07,4.76-3.35,6
	c-1,4.32,0.71,7.81,1.38,9.12c1.72,3.38,4.33,5.38,5.77,6.32C193.06,536.19,191.6,545.6,190.14,555.01z"/>
<path class="st8" d="M395.79,554.9c0.13-10.71-0.12-17.73-0.82-21.71c-0.19-1.09-0.84-4.39,1.15-6.46c0.44-0.46,1.1-1.14,1.8-1.05
	c2.18,0.29,2.83,7.79,3.61,16.83c0.16,1.83,0.45,5.59,1.64,10.52c0.2,0.82,0.38,1.48,0.49,1.91
	C401.04,554.92,398.42,554.91,395.79,554.9z"/>
<path class="st9" d="M217.87,270.03c10.63-19,22.91-31.43,31.34-38.76c13.12-11.4,27.25-19.41,35.12-23.88
	c5.95-3.37,11.06-5.97,14.73-7.76c3.73,4.38,9.55,10.87,17.34,18.19c10.62,9.98,18.19,15.21,29.16,23.86
	c7.73,6.1,18.66,15.09,31.38,26.89c1.59-0.84,3.17-1.67,4.76-2.51c-0.04-8.38-0.08-21.58,0-37.85c0.12-22.58,0.33-23.76,0.58-56.37
	c0.11-14.2,0.27-40.86,0.29-43.4c0.01-0.82,0.05-8.21,0.05-9.02c-1.11-1.9-3.59-5.49-8.28-8.24c-7.12-4.17-14.42-3.52-16.56-3.25
	c-3.03-2.94-8.4-7.2-16.09-8.67c-3.96-0.76-7.05-0.48-11.36,0c-15.6,1.75-23.4,2.63-31,4.77c-8.88,2.5-16.96,4.78-25.79,10.62
	c-10.37,6.86-16.47,15.12-19.88,20.81c-5.55,2.67-13.45,7.24-21.06,14.74c-6.25,6.15-10.25,12.27-12.78,16.91
	c-2.05,1.44-4.1,2.89-6.15,4.33c-0.47,30.99-0.95,61.99-1.42,92.98C214.12,266.29,215.99,268.16,217.87,270.03z"/>
<path class="st10" d="M377.75,269.36c1.88-0.34,3.14-1.93,3.94-3.29c-8.16-11.99-16.74-19.44-23.05-24.03
	c-5.24-3.81-16.89-11.43-27.39-19.76c-2.4-1.9-8.08-6.52-11.07-14.13c-0.5-1.28-0.82-2.36-1.01-3.07c0.26-0.25,0.66-0.57,1.23-0.82
	c4.03-1.76,10.14,3.18,15.43,7.07c5.71,4.2,12.17,7.49,17.89,11.67c6.35,4.65,15.68,11.38,27.92,19.89
	c1.67-4.53,9.32-26.2,0.21-33.71c-1.51-1.25-5.84-4.03-10.58-6.43c-3.32-1.67-5.62-2.53-10.53-5.2c-4.1-2.23-5.74-3.39-7.27-5.06
	c-1.01-1.11-2.75-3.01-3.48-5.69c-0.83-3.02,0.73-6.52,3.86-13.39c1.13-2.48,2.76-5.76,6.06-8.95c2.06-1.99,3.06-2.29,3.86-2.22
	c1.83,0.16,2.79,2.27,5.07,6.87c4.55,9.16,6.12,11.59,7.35,13.25c1.97,2.66,3.95,4.57,5.23,5.69c-0.15-10.96-0.3-21.92-0.45-32.88
	c-2.3-1.3-5.49-3.55-7.42-7.21c-2.14-4.06-1.28-7.12-2.12-12.69c-1.04-6.97-2.41-10.32-4.39-12.97c-0.24-0.32-1.64-2.17-1.82-4.72
	c-0.06-0.85-0.14-2.05,0.61-2.64c1.41-1.12,4.88,0.67,6.29,1.39c2.32,1.19,5.97,3.55,9.31,8.25c0.25-1.96,0.49-3.92,0.74-5.89
	c-2.32-2.67-6.18-6.4-11.57-8.89c-2.92-1.35-4.93-1.71-6.03-1.85c-3.12-0.4-5.71,0.06-7.3,0.46c0.58,0.96,1.31,2.44,1.67,4.34
	c0.48,2.59,0.04,4.72-0.32,5.93c1.29,0.89,2.92,2.17,4.55,3.94c0.81,0.88,2.48,2.72,3.81,5.41c1.8,3.63,1.98,6.78,2.09,9.01
	c0.15,3.04,0.35,7.38-2.46,11.49c-0.51,0.75-1.01,1.32-1.35,1.69c-2.05-0.45-4.1-0.9-6.15-1.35c-0.41,2.11-1.22,5.17-2.95,8.56
	c-2.91,5.69-6.67,8.83-16.73,16.45c-20.07,15.21-25.29,17.98-27.8,19.27c-5.31,2.72-9.96,4.61-13.29,5.86
	c2.2,2.52,5.21,5.88,8.93,9.72c4.38,4.53,11.43,11.48,21.19,19.59c21.6,17.96,23.15,13.88,32.26,24.33
	C368.14,261.18,372.68,270.28,377.75,269.36z"/>
<path class="st11" d="M212.25,264.2c2.38-3.68,5.55-8.27,9.58-13.36c3.25-4.11,9.69-11.87,19.11-20.58
	c10.16-9.4,18.77-15.25,29.19-22.28c16.12-10.87,17.82-9.82,31.62-19.84c11.74-8.53,7.89-7.29,22-18.7c0,0,3.86-3.12,8.26-9.01
	c4.38-5.87,3.92-7.56,3.57-8.26c-0.31-0.61-1.56-2.34-8.11-2.55c-20.18-0.62-47.5,14.92-54.91,19.21
	c-6.84,3.95-16.07,9.49-26.76,16.55c3.76-5.52,10.09-13.47,20.04-20.69c13.11-9.51,27.76-14.31,37.53-17.51
	c0,0,13.99-4.58,36.49-15.81c1.11-0.56,3.47-1.77,3.24-2.44c-0.22-0.66-2.8-0.49-3.71-0.42c-10.38,0.7-43.03,10.43-52.36,12.94
	c-12.19,3.28-9.78,1.02-18.9,3.85c-15.31,4.75-28.81,13.23-44.84,23.3c-1.28,0.8-2.6,1.64-2.6,1.64c-2.9,1.84-5.32,3.4-7.09,4.55
	c3.94-7.58,11.22-19.06,24.22-29.27c12.89-10.13,25.38-14.28,42.69-19.87c30.36-9.79,44.85-11.07,51.15-10.96
	c0.7,0.01,7.58-0.48,15.75,1.42c3.18,0.74,5.2,1.52,7.12,2.77c1.44,0.94,4.62,3.32,6.21,7.21c0.56,1.38,1.61,4.65-0.61,12.2
	c-2.2,7.47-5.7,12.71-6.97,14.56c-5.03,7.37-9.85,14.43-19.08,22.47c-12.45,10.84-18.53,10.93-39.67,23.16
	c-13.93,8.06-23.29,14.97-33.46,22.47c-23.54,17.36-32.21,27.34-36.79,33.15c-4.12,5.22-7.14,9.84-9.13,13.11
	C214.11,266.21,213.18,265.21,212.25,264.2z"/>
<path class="st12" d="M392.59,503.23c-0.52,16.99-1.04,33.99-1.57,50.98c0.46-0.03,0.93-0.05,1.39-0.08
	c0.66-16.44,1.31-32.89,1.97-49.33c0.02-0.3,0.04-0.59,0.06-0.89C393.83,503.69,393.21,503.46,392.59,503.23z"/>
<path class="st13" d="M405.2,41.34c-2.37,27.26-3.93,49.59-4.92,65.12c-1.39,21.75-1.21,22.78-3.43,58.84
	c-1.88,30.5-3.14,48.14-4.06,60.45c-0.94,12.47-1.78,22.84-2.38,30.09c0.16,0.67,0.49,1.66,1.25,2.64c1.68,2.15,4.3,2.79,5.64,3.1
	c2.81,0.65,3.1-0.18,7.15,0.46c2.97,0.47,4.1,1.12,4.76,1.61c1.25,0.92,1.91,2.03,2.26,2.76c-1.34-0.26-3.24-0.54-5.52-0.57
	c-3.32-0.05-5.84,0.45-6.39,0.57c-5.08,1.12-8.5,6.57-11.28,11.14c-5.29,8.69-9.24,15.34-11.97,20.01c-2.72,4.8-5.7,9.74-8.94,14.8
	c-2.54,3.97-5.1,7.77-7.64,11.4c0.03,3.67,0.02,6.74,0,9.01c-0.03,3.7-0.09,4.78-0.24,6.05c-0.41,3.35-1.28,6.02-1.98,7.8
	c-1.52,4.9-3.07,8.27-4.3,10.57c-0.36,0.68-1.39,2.56-1.45,5.09c-0.02,1.09-0.08,3.45,1.37,4.28c1.69,0.97,4.49-0.68,5.48-1.25
	c1.06-0.62,3.42-2.2,8.14-10.41c1.23-2.14,2.15-3.91,2.74-5.09c0.88-1.75,1.96-4.03,3.99-8.95c2.6-6.3,2.32-6.17,3.39-8.51
	c1.15-2.5,3.03-6.06,6.15-10.13c-0.93,1.31-2.44,3.53-4.01,6.43c-3.4,6.28-3.32,8.79-7.13,17.01c-0.74,1.59-1.98,3.93-4.47,8.61
	c-0.4,0.75-2.14,3.99-4.93,7.77c-0.7,0.94-1.97,2.62-4.24,3.93c-2.19,1.27-3.52,1.16-3.98,1.1c-1.11-0.15-1.92-0.66-2.37-1.01
	c-1.44,2.29-3.9,5.76-7.75,9.34c-3.4,3.16-4.62,3.38-7.84,6.72c-6.17,6.4-6.4,10.46-6.42,11.49c-0.03,1.31-0.08,3.99,1.39,4.64
	c2.35,1.05,5.93-4.29,13.16-9.89c9.69-7.51,16.33-8.04,24.29-14.95c3.9-3.39,6.67-7.04,6.92-7.38c1.38-1.84,2.33-3.41,3-4.52
	c1.98-3.29,3.34-6.21,4.25-8.39c-0.82,2.17-1.86,4.54-3.17,7.04c-1.15,2.2-2.35,4.18-3.52,5.94c-4.04,5.23-8.09,8.43-11,10.36
	c-1.97,1.31-4.3,2.63-6.1,3.65c-5.27,2.98-6.52,3.27-9.38,5.01c-3.99,2.42-9.57,6.71-8.93,7.74c0.61,0.97,6.1-1.93,26.92-9.65
	c4.64-1.72,9.72-3.56,14.77-7.97c2.46-2.15,3.98-4.09,5.76-6.39c2.75-3.56,6.35-8.88,9.49-16.07c-0.9,1.94-2.24,4.67-4.02,7.87
	c-3.78,6.78-5.67,10.17-9.2,13.47c-4.17,3.91-8.68,6.05-11.39,7.31c-5.62,2.61-9.36,3.11-9.25,3.6c0.16,0.74,8.96,1.27,16.79-2.07
	c10.54-4.49,14.77-14.05,16.01-17.26c0.58-1.39,1.52-3.49,2.89-5.95c3.23-5.77,5.9-8.24,7.97-11.42c2.13-3.28,2.66-5.94,4.22-15.36
	c2.22-13.43,2.25-16.61,4.03-28.79c1.6-10.96,2.58-15.21,2.38-23.17c-0.11-4.53-0.55-8.25-0.92-10.74
	c-0.03-0.84-0.06-1.68-0.09-2.52c0.79-1.93,1.91-4.76,3.12-8.23c2.86-8.22,4.85-16.13,7.33-29.8c1.45-8.03,2.34-14.19,4.12-26.53
	c1.93-13.37,2.89-20.06,3.94-29.55c0.7-6.32,1.23-12.58,2.29-25.1c1.4-16.53,1.3-17.06,2.38-29.3c1.27-14.31,1.51-14.71,2.47-26.44
	c1.08-13.13,1.61-22.75,1.74-25.18c0.42-7.81,0.8-16.86,1.01-26.95C432.1,40.9,418.65,41.12,405.2,41.34z"/>
<path class="st14" d="M386.48,40.88c-0.78,16.21-1.54,29.28-2.06,37.85c-1.64,26.99-2.42,33.7-2.57,49.01
	c-0.16,16.23,0.66,13.56,0.51,32.04c-0.13,15.44-0.72,19.34-1.19,45.08c-0.17,9.61-0.22,15.89-0.17,22.46
	c0.09,13.47,0.5,22.16,0.65,25.13c0.28,5.63,0.62,10.37,0.89,13.82c-2.05,1.05-4.86,2.84-7.03,5.81c-1.74,2.38-2.23,4.37-2.92,6.6
	c-2.87,9.34-4.96,9.33-7.55,18.06c-1.01,3.41-0.17,1.65-2.23,10.84c-1.67,7.47-2.66,10.56-3.09,16.18
	c-0.19,2.58,24.91-40.48,30.73-49.76c1.57-2.51,3.57-5.46,7.42-7.05c2.04-0.85,4.33-0.95,5.97-1.08c3.12-0.24,5.72,0.01,7.5,0.28
	c-0.37-0.7-1.02-1.68-2.13-2.51c-1.97-1.47-4.1-1.5-7.2-1.86c-1.98-0.23-4.78-0.65-8.19-1.47c-0.69-0.38-1.78-1.12-2.52-2.35
	c-1.09-1.82-0.8-3.72-0.71-4.39c1.45-10.22,1.39-20.58,2.42-30.84c0.04-0.42,0.26-3.48,0.7-9.58c1.05-14.72,1.77-25.93,2.38-35.68
	c0.55-8.66,1.23-19.41,2.04-33.61c0.84-14.78,0.9-16.97,1.59-28.52c0.23-3.76,0.88-14.44,1.84-28c0.88-12.42,2.09-28.1,3.71-46.4
	C399.01,40.92,392.74,40.9,386.48,40.88z"/>
<path class="st14" d="M190.25,40.95c-0.42,6.56-0.89,17.12-0.47,30.14c0.66,20.02,2.72,23.72,5.43,54.28
	c1.59,17.95,1.34,21.76,3.41,42.08c1.97,19.24,2.14,15.27,2.79,24.43c2.21,30.91-1.46,52.52,2.24,60.72
	c0.29,0.65,1.38,2.88,0.45,4.51c-0.79,1.38-2.43,1.28-7.31,2.56c-1.71,0.45-4.29,1.13-6.72,2.19c-2.82,1.23-4.89,2.72-6.17,3.77
	c1.44,0.31,3.45,0.78,5.82,1.51c7.37,2.26,12.86,5.3,14.56,6.37c8.06,5.06,8.34,14.09,13.47,26.39c2.81,6.74,7.88,15.92,17.77,25.87
	c-2.04-9.9-3.42-17.98-4.3-23.47c-3.12-19.51-3.41-28.47-11.22-34.78c-3.27-2.64-6.76-3.94-9.17-4.63
	c0.6-7.71,1.41-19.37,1.94-33.58c1.18-31.79-0.38-39.72-1-91.32c-0.37-30.46,0.02-40.91-1.31-65.28
	c-0.72-13.19-1.59-24.09-2.24-31.53C202.23,41.1,196.24,41.03,190.25,40.95z"/>
<path class="st15" d="M235.81,327.32c-0.67,6.17-0.01,10.98,0.71,14.23c1.77,7.94,2.65,11.91,5.1,15.86
	c0.73,1.18,3.5,5.46,2.25,7.93c-0.12,0.24-0.49,0.97-1.3,1.3c-0.9,0.36-1.98,0.08-3.2-0.54c-4.96-2.54-7.47-6.41-7.47-6.41
	c-3.81-5.87-6.63-12.6-8.87-19.5c-0.88-2.7-1.64-5.36-3.55-8.78c-0.44-0.8-1.99-3.5-4.66-6.55c-1.16-1.33-2.55-2.74-2.65-2.67
	c-0.08,0.06,0.83,1.18,2.75,3.73c2.95,3.93,3.61,5.04,3.86,5.48c0.93,1.6,1.55,2.99,1.91,3.83c0.13,0.31,0.44,1.06,1.43,3.98
	c0.69,2.05,0.9,2.73,1.27,3.83c0,0,0.94,2.79,2.17,5.77c1.46,3.54,2.83,6.86,5.51,10.62c0.27,0.39,1.51,2.11,3.49,4.07
	c2.43,2.41,3.74,2.97,4.39,3.2c1.39,0.5,2.66,0.56,3.49,0.53c0.35-0.16,0.71-0.32,1.06-0.48c1.83,1.52,4.15,3.55,6.72,6.06
	c3.19,3.11,2.54,2.84,9.05,9.94c2.25,2.45,4.65,5.02,6.14,8.49c0.19,0.44,0.98,2.34,0.58,4.66c-0.13,0.73-0.41,2.4-1.54,2.76
	c-0.74,0.24-1.54-0.2-2.33-0.68c-3.45-2.11-5.9-4.63-7.04-5.82c-2.3-2.4-2.5-2.67-3.02-3.2c-1.53-1.58-4.91-4.44-10.25-7.5
	c-0.39-0.23-0.67-0.38-1-0.56c-4.85-2.69-6.94-3.43-10.36-5.15c-4.2-2.11-5.61-2.85-7.18-4.44c-0.75-0.76-1-1.17-4.15-6.36
	c-3.73-6.14-3.82-6.29-4.15-6.93c-1.18-2.28-1.1-2.5-3.57-7.79c-0.55-1.17-1.27-2.72-2.17-4.55c-2-4.05-4.21-8.22-4.31-8.18
	c-0.07,0.03,0.82,1.93,1.54,3.49c1.33,2.85,2.04,4.22,3.2,6.61c1.94,3.98,1.72,3.78,3.47,7.34c1.39,2.83,2.09,4.24,3.2,6.16
	c2.11,3.66,2.23,3.13,3.56,5.72c1.04,2.03,1.42,3.24,2.9,4.68c0.85,0.83,1.65,1.34,2.72,1.97c3.36,1.98,6.08,3.22,7.83,4.05
	c0.53,0.25,4.39,2.09,8.22,4.3c3.34,1.92,4.98,2.99,6.31,4c0.79,0.59,2.06,1.55,3.56,2.96c0.49,0.46,1.37,1.35,3.12,3.1
	c0.62,0.62,1.12,1.13,1.46,1.47c-0.75-0.17-1.86-0.42-3.19-0.77c-2.98-0.78-4.28-1.3-9.25-3.01c-3.34-1.15-11.68-3.98-12.41-4.24
	c-0.38-0.14-0.76-0.27-0.76-0.27c0,0-0.09-0.03-0.19-0.07c-0.68-0.24-8.88-3.26-10.62-4c-3.22-1.36-5.69-4.66-10.62-11.27
	c-2.47-3.31-3.57-5.27-8.41-12.23c-0.61-0.87-1.6-2.29-2.86-4.06c-1.11-1.55-2.04-2.83-2.71-3.74c0.7,1.33,1.85,3.44,3.45,5.94
	c2.04,3.2,2.85,4,6.18,8.74c2.98,4.24,2.9,4.42,5.22,7.59c2.85,3.89,4.28,5.84,5.93,7.13c2.38,1.86,4.67,2.77,8.79,4.42
	c2.75,1.1,5.13,1.85,6.85,2.35c-1.22,0.07-2.86,0.12-4.79,0c-1.73-0.11-4.39-0.28-7.38-1.17c-1.54-0.46-5.32-1.63-8.51-4.48
	c-2.72-2.44-2.84-4.16-5.08-7.81c-2.78-4.54-5.04-5.88-8.55-9.68c0,0-5.6-6.07-10.38-16.13c-1.83-3.84-2.58-6.71-5.01-25.64
	c-3.29-25.6-3.49-32.52-3.5-37.28c-0.02-6.48,0.29-11.86,0.58-15.6c-2.48-8.75-5.63-20.55-8.86-34.61
	c-3.21-13.99-6.18-26.94-8.51-43.91c-1.45-10.59-1.13-11.65-3.62-37.71c-1.77-18.56-2.85-27.71-3.73-36.32
	c-1.71-16.73-3.65-41.5-4.34-74.9c13.5,0.11,27,0.22,40.5,0.33c0.77,30.72,2.53,55.65,3.97,72.56c3.55,41.64,8.07,68.59,9.85,117.47
	c0.39,10.64,0.53,19.35,0.6,24.92c-0.26,0.77-0.8,2.03-2.02,3.07c-1.29,1.11-2.61,1.21-6.6,1.83c-3.43,0.53-5.15,0.8-5.96,1.06
	c-1.6,0.51-3.8,1.53-6.17,3.77c3.49,0,6.98,0,10.48,0c2.52,1.44,5.02,3.04,7.49,4.83C224.97,287.25,232.83,312.07,235.81,327.32z"/>
</svg>
